<?xml version="1.0" encoding="iso-8859-1"?>
<!-- Generator: Adobe Illustrator 16.0.0, SVG Export Plug-In . SVG Version: 6.00 Build 0)  -->
<!DOCTYPE svg PUBLIC "-//W3C//DTD SVG 1.1//EN" "http://www.w3.org/Graphics/SVG/1.1/DTD/svg11.dtd">
<svg version="1.1" id="Capa_1" xmlns="http://www.w3.org/2000/svg" xmlns:xlink="http://www.w3.org/1999/xlink" x="0px" y="0px"
	 width="158.803px" height="158.803px" viewBox="0 0 158.803 158.803" style="enable-background:new 0 0 158.803 158.803;"
	 xml:space="preserve" fill="#CC474B">
<g>
	<g>
		<path d="M145.064,10.487H13.734C6.182,10.487,0,16.668,0,24.219v87.457c0,7.551,6.187,13.734,13.734,13.734h60.066v11.698H31.776
			l-5.603,5.604v5.604h106.463v-5.604l-5.604-5.604H85.007V125.41h60.067c7.551,0,13.729-6.184,13.729-13.734V24.219
			C158.798,16.668,152.625,10.487,145.064,10.487z M153.194,94.865c0,4.487-3.646,8.131-8.13,8.131H13.734
			c-4.483,0-8.131-3.644-8.131-8.131V24.219c0-4.481,3.648-8.128,8.131-8.128h131.33c4.484,0,8.13,3.647,8.13,8.128V94.865z"/>
		<path d="M32.759,19.267c-0.775,0-1.469,0.263-2.036,0.774c-0.572,0.514-0.85,1.253-0.85,2.206V29.1
			c0,0.897,0.284,1.609,0.85,2.118c0.573,0.522,1.268,0.779,2.036,0.779c0.761,0,1.438-0.257,2.017-0.779
			c0.588-0.509,0.872-1.221,0.872-2.118v-6.854c0-0.952-0.283-1.691-0.872-2.206C34.197,19.53,33.52,19.267,32.759,19.267z
			 M33.632,29.398c0,0.583-0.29,0.873-0.873,0.873c-0.583,0-0.859-0.295-0.859-0.873v-7.527c0-0.577,0.282-0.862,0.859-0.862
			c0.583,0,0.873,0.29,0.873,0.862V29.398z"/>
		<path d="M32.759,41.659c-0.775,0-1.469,0.257-2.036,0.771c-0.572,0.518-0.85,1.251-0.85,2.219v6.848
			c0,0.897,0.284,1.609,0.85,2.118c0.573,0.522,1.268,0.78,2.036,0.78c0.761,0,1.438-0.257,2.017-0.78
			c0.588-0.509,0.872-1.221,0.872-2.118v-6.848c0-0.963-0.283-1.702-0.872-2.219C34.197,41.916,33.52,41.659,32.759,41.659z
			 M33.632,51.779c0,0.58-0.29,0.872-0.873,0.872c-0.583,0-0.859-0.292-0.859-0.872v-7.517c0-0.588,0.282-0.878,0.859-0.878
			c0.583,0,0.873,0.29,0.873,0.878V51.779z"/>
		<path d="M14.105,19.267c-0.786,0-1.458,0.263-2.031,0.774c-0.563,0.514-0.868,1.253-0.868,2.206V29.1
			c0,0.897,0.31,1.609,0.868,2.118c0.577,0.522,1.251,0.779,2.031,0.779c0.76,0,1.434-0.257,2.022-0.779
			c0.582-0.509,0.875-1.221,0.875-2.118v-6.854c0-0.952-0.299-1.691-0.875-2.206C15.539,19.53,14.865,19.267,14.105,19.267z
			 M14.988,29.398c0,0.583-0.301,0.873-0.883,0.873c-0.578,0-0.871-0.295-0.871-0.873v-7.527c0-0.577,0.299-0.862,0.871-0.862
			c0.582,0,0.883,0.29,0.883,0.862V29.398z"/>
		<rect x="13.101" y="41.659" width="2.022" height="12.73"/>
		<path d="M51.41,19.267c-0.771,0-1.455,0.263-2.027,0.774c-0.572,0.514-0.861,1.253-0.861,2.206V29.1
			c0,0.897,0.294,1.609,0.861,2.118c0.577,0.522,1.261,0.779,2.027,0.779c0.77,0,1.442-0.257,2.024-0.779
			c0.583-0.509,0.873-1.221,0.873-2.118v-6.854c0-0.952-0.294-1.691-0.873-2.206C52.852,19.53,52.179,19.267,51.41,19.267z
			 M52.301,29.398c0,0.583-0.304,0.873-0.885,0.873c-0.583,0-0.868-0.295-0.868-0.873v-7.527c0-0.577,0.289-0.862,0.868-0.862
			c0.582,0,0.885,0.29,0.885,0.862V29.398z"/>
		<rect x="50.403" y="41.659" width="2.026" height="12.73"/>
		<path d="M70.058,19.267c-0.78,0-1.45,0.263-2.033,0.774c-0.565,0.514-0.864,1.253-0.864,2.206V29.1
			c0,0.897,0.304,1.609,0.864,2.118c0.583,0.522,1.259,0.779,2.033,0.779c0.77,0,1.445-0.257,2.028-0.779
			c0.577-0.509,0.869-1.221,0.869-2.118v-6.854c0-0.952-0.298-1.691-0.869-2.206C71.503,19.53,70.828,19.267,70.058,19.267z
			 M70.95,29.398c0,0.583-0.308,0.873-0.885,0.873c-0.578,0-0.868-0.295-0.868-0.873v-7.527c0-0.577,0.29-0.862,0.868-0.862
			c0.577,0,0.885,0.29,0.885,0.862V29.398z"/>
		<rect x="69.063" y="41.659" width="2.011" height="12.73"/>
		<rect x="31.754" y="64.731" width="2.022" height="12.733"/>
		<path d="M32.759,87.111c-0.775,0-1.469,0.263-2.036,0.783c-0.572,0.514-0.85,1.247-0.85,2.199v6.856
			c0,0.892,0.284,1.604,0.85,2.128c0.573,0.504,1.268,0.767,2.036,0.767c0.761,0,1.438-0.263,2.017-0.767
			c0.588-0.524,0.872-1.236,0.872-2.128v-6.856c0-0.952-0.283-1.686-0.872-2.199C34.197,87.374,33.52,87.111,32.759,87.111z
			 M33.632,97.239c0,0.587-0.29,0.877-0.873,0.877c-0.583,0-0.859-0.296-0.859-0.877v-7.523c0-0.574,0.282-0.869,0.859-0.869
			c0.583,0,0.873,0.295,0.873,0.869V97.239z"/>
		<path d="M14.105,64.731c-0.786,0-1.458,0.26-2.031,0.773c-0.563,0.518-0.868,1.251-0.868,2.215v6.847
			c0,0.895,0.31,1.606,0.868,2.123c0.577,0.509,1.251,0.774,2.031,0.774c0.76,0,1.434-0.266,2.022-0.774
			c0.582-0.517,0.875-1.229,0.875-2.123V67.72c0-0.964-0.299-1.697-0.875-2.215C15.539,64.991,14.865,64.731,14.105,64.731z
			 M14.988,74.852c0,0.588-0.301,0.875-0.883,0.875c-0.578,0-0.871-0.287-0.871-0.875v-7.519c0-0.582,0.299-0.875,0.871-0.875
			c0.582,0,0.883,0.298,0.883,0.875V74.852z"/>
		<path d="M14.105,87.111c-0.786,0-1.458,0.263-2.031,0.783c-0.563,0.514-0.868,1.247-0.868,2.199v6.856
			c0,0.892,0.31,1.604,0.868,2.128c0.577,0.504,1.251,0.767,2.031,0.767c0.76,0,1.434-0.263,2.022-0.767
			c0.582-0.524,0.875-1.236,0.875-2.128v-6.856c0-0.952-0.299-1.686-0.875-2.199C15.539,87.374,14.865,87.111,14.105,87.111z
			 M14.988,97.239c0,0.587-0.301,0.877-0.883,0.877c-0.578,0-0.871-0.296-0.871-0.877v-7.523c0-0.574,0.299-0.869,0.871-0.869
			c0.582,0,0.883,0.295,0.883,0.869V97.239z"/>
		<path d="M51.41,64.731c-0.771,0-1.455,0.26-2.027,0.773c-0.572,0.518-0.861,1.251-0.861,2.215v6.847
			c0,0.895,0.294,1.606,0.861,2.123c0.577,0.509,1.261,0.774,2.027,0.774c0.77,0,1.442-0.266,2.024-0.774
			c0.583-0.517,0.873-1.229,0.873-2.123V67.72c0-0.964-0.294-1.697-0.873-2.215C52.852,64.991,52.179,64.731,51.41,64.731z
			 M52.301,74.852c0,0.588-0.304,0.875-0.885,0.875c-0.583,0-0.868-0.287-0.868-0.875v-7.519c0-0.582,0.289-0.875,0.868-0.875
			c0.582,0,0.885,0.298,0.885,0.875V74.852z"/>
		<path d="M51.41,87.111c-0.771,0-1.455,0.263-2.027,0.783c-0.572,0.514-0.861,1.247-0.861,2.199v6.856
			c0,0.892,0.294,1.604,0.861,2.128c0.577,0.504,1.261,0.767,2.027,0.767c0.77,0,1.442-0.263,2.024-0.767
			c0.583-0.524,0.873-1.236,0.873-2.128v-6.856c0-0.952-0.294-1.686-0.873-2.199C52.852,87.374,52.179,87.111,51.41,87.111z
			 M52.301,97.239c0,0.587-0.304,0.877-0.885,0.877c-0.583,0-0.868-0.296-0.868-0.877v-7.523c0-0.574,0.289-0.869,0.868-0.869
			c0.582,0,0.885,0.295,0.885,0.869V97.239z"/>
		<path d="M70.058,64.731c-0.78,0-1.45,0.26-2.033,0.773c-0.565,0.518-0.864,1.251-0.864,2.215v6.847
			c0,0.895,0.304,1.606,0.864,2.123c0.583,0.509,1.259,0.774,2.033,0.774c0.77,0,1.445-0.266,2.028-0.774
			c0.577-0.517,0.869-1.229,0.869-2.123V67.72c0-0.964-0.298-1.697-0.869-2.215C71.503,64.991,70.828,64.731,70.058,64.731z
			 M70.95,74.852c0,0.588-0.308,0.875-0.885,0.875c-0.578,0-0.868-0.287-0.868-0.875v-7.519c0-0.582,0.29-0.875,0.868-0.875
			c0.577,0,0.885,0.298,0.885,0.875V74.852z"/>
		<path d="M70.058,87.111c-0.78,0-1.45,0.263-2.033,0.783c-0.565,0.514-0.864,1.247-0.864,2.199v6.856
			c0,0.892,0.304,1.604,0.864,2.128c0.583,0.504,1.259,0.767,2.033,0.767c0.77,0,1.445-0.263,2.028-0.767
			c0.577-0.524,0.869-1.236,0.869-2.128v-6.856c0-0.952-0.298-1.686-0.869-2.199C71.503,87.374,70.828,87.111,70.058,87.111z
			 M70.95,97.239c0,0.587-0.308,0.877-0.885,0.877c-0.578,0-0.868-0.296-0.868-0.877v-7.523c0-0.574,0.29-0.869,0.868-0.869
			c0.577,0,0.885,0.295,0.885,0.869V97.239z"/>
		<path d="M107.404,19.267c-0.775,0-1.476,0.263-2.035,0.774c-0.58,0.514-0.854,1.253-0.854,2.206V29.1
			c0,0.897,0.279,1.609,0.854,2.118c0.568,0.522,1.27,0.779,2.035,0.779s1.434-0.257,2.014-0.779
			c0.582-0.509,0.876-1.221,0.876-2.118v-6.854c0-0.952-0.299-1.691-0.876-2.206C108.833,19.53,108.16,19.267,107.404,19.267z
			 M108.258,29.398c0,0.583-0.273,0.873-0.854,0.873c-0.589,0-0.873-0.295-0.873-0.873v-7.527c0-0.577,0.284-0.862,0.873-0.862
			c0.58,0,0.854,0.29,0.854,0.862V29.398z"/>
		<path d="M107.404,41.659c-0.775,0-1.476,0.257-2.035,0.771c-0.58,0.518-0.854,1.251-0.854,2.219v6.848
			c0,0.897,0.279,1.609,0.854,2.118c0.568,0.522,1.27,0.78,2.035,0.78s1.434-0.257,2.014-0.78c0.582-0.509,0.876-1.221,0.876-2.118
			v-6.848c0-0.963-0.299-1.702-0.876-2.219C108.833,41.916,108.16,41.659,107.404,41.659z M108.258,51.779
			c0,0.58-0.273,0.872-0.854,0.872c-0.589,0-0.873-0.292-0.873-0.872v-7.517c0-0.588,0.284-0.878,0.873-0.878
			c0.58,0,0.854,0.29,0.854,0.878V51.779z"/>
		<path d="M88.741,19.267c-0.784,0-1.457,0.263-2.041,0.774c-0.565,0.514-0.854,1.253-0.854,2.206V29.1
			c0,0.897,0.294,1.609,0.854,2.118c0.584,0.522,1.268,0.779,2.041,0.779c0.771,0,1.438-0.257,2.028-0.779
			c0.568-0.509,0.866-1.221,0.866-2.118v-6.854c0-0.952-0.303-1.691-0.866-2.206C90.179,19.53,89.512,19.267,88.741,19.267z
			 M89.62,29.398c0,0.583-0.295,0.873-0.875,0.873c-0.578,0-0.876-0.295-0.876-0.873v-7.527c0-0.577,0.298-0.862,0.876-0.862
			c0.58,0,0.875,0.29,0.875,0.862V29.398z"/>
		<rect x="87.738" y="41.659" width="2.024" height="12.73"/>
		<path d="M126.058,19.267c-0.78,0-1.461,0.263-2.035,0.774c-0.574,0.514-0.869,1.253-0.869,2.206V29.1
			c0,0.897,0.295,1.609,0.869,2.118c0.574,0.522,1.265,0.779,2.035,0.779c0.762,0,1.434-0.257,2.021-0.779
			c0.573-0.509,0.874-1.221,0.874-2.118v-6.854c0-0.952-0.305-1.691-0.874-2.206C127.486,19.53,126.813,19.267,126.058,19.267z
			 M126.931,29.398c0,0.583-0.309,0.873-0.873,0.873c-0.584,0-0.886-0.295-0.886-0.873v-7.527c0-0.577,0.302-0.862,0.886-0.862
			c0.575,0,0.873,0.29,0.873,0.862V29.398z"/>
		<rect x="125.024" y="41.659" width="2.032" height="12.73"/>
		<path d="M144.707,19.267c-0.78,0-1.462,0.263-2.041,0.774c-0.569,0.514-0.864,1.253-0.864,2.206V29.1
			c0,0.897,0.295,1.609,0.864,2.118c0.579,0.522,1.27,0.779,2.041,0.779c0.766,0,1.441-0.257,2.021-0.779
			c0.569-0.509,0.868-1.221,0.868-2.118v-6.854c0-0.952-0.304-1.691-0.868-2.206C146.148,19.53,145.468,19.267,144.707,19.267z
			 M145.579,29.398c0,0.583-0.309,0.873-0.872,0.873c-0.589,0-0.879-0.295-0.879-0.873v-7.527c0-0.577,0.29-0.862,0.879-0.862
			c0.569,0,0.872,0.29,0.872,0.862V29.398z"/>
		<rect x="143.694" y="41.659" width="2.003" height="12.73"/>
		<rect x="106.387" y="64.731" width="2.013" height="12.733"/>
		<path d="M107.404,87.111c-0.775,0-1.476,0.263-2.035,0.783c-0.58,0.514-0.854,1.247-0.854,2.199v6.856
			c0,0.892,0.279,1.604,0.854,2.128c0.568,0.504,1.27,0.767,2.035,0.767s1.434-0.263,2.014-0.767
			c0.582-0.524,0.876-1.236,0.876-2.128v-6.856c0-0.952-0.299-1.686-0.876-2.199C108.833,87.374,108.16,87.111,107.404,87.111z
			 M108.258,97.239c0,0.587-0.273,0.877-0.854,0.877c-0.589,0-0.873-0.296-0.873-0.877v-7.523c0-0.574,0.284-0.869,0.873-0.869
			c0.58,0,0.854,0.295,0.854,0.869V97.239z"/>
		<path d="M88.741,64.731c-0.784,0-1.457,0.26-2.041,0.773c-0.565,0.518-0.854,1.251-0.854,2.215v6.847
			c0,0.895,0.294,1.606,0.854,2.123c0.584,0.509,1.268,0.774,2.041,0.774c0.771,0,1.438-0.266,2.028-0.774
			c0.568-0.517,0.866-1.229,0.866-2.123V67.72c0-0.964-0.303-1.697-0.866-2.215C90.179,64.991,89.512,64.731,88.741,64.731z
			 M89.62,74.852c0,0.588-0.295,0.875-0.875,0.875c-0.578,0-0.876-0.287-0.876-0.875v-7.519c0-0.582,0.298-0.875,0.876-0.875
			c0.58,0,0.875,0.298,0.875,0.875V74.852z"/>
		<path d="M88.741,87.111c-0.784,0-1.457,0.263-2.041,0.783c-0.565,0.514-0.854,1.247-0.854,2.199v6.856
			c0,0.892,0.294,1.604,0.854,2.128c0.584,0.504,1.268,0.767,2.041,0.767c0.771,0,1.438-0.263,2.028-0.767
			c0.568-0.524,0.866-1.236,0.866-2.128v-6.856c0-0.952-0.303-1.686-0.866-2.199C90.179,87.374,89.512,87.111,88.741,87.111z
			 M89.62,97.239c0,0.587-0.295,0.877-0.875,0.877c-0.578,0-0.876-0.296-0.876-0.877v-7.523c0-0.574,0.298-0.869,0.876-0.869
			c0.58,0,0.875,0.295,0.875,0.869V97.239z"/>
		<path d="M126.058,64.731c-0.78,0-1.461,0.26-2.035,0.773c-0.574,0.518-0.869,1.251-0.869,2.215v6.847
			c0,0.895,0.295,1.606,0.869,2.123c0.574,0.509,1.265,0.774,2.035,0.774c0.762,0,1.434-0.266,2.021-0.774
			c0.573-0.517,0.874-1.229,0.874-2.123V67.72c0-0.964-0.305-1.697-0.874-2.215C127.486,64.991,126.813,64.731,126.058,64.731z
			 M126.931,74.852c0,0.588-0.309,0.875-0.873,0.875c-0.584,0-0.886-0.287-0.886-0.875v-7.519c0-0.582,0.302-0.875,0.886-0.875
			c0.575,0,0.873,0.298,0.873,0.875V74.852z"/>
		<path d="M126.058,87.111c-0.78,0-1.461,0.263-2.035,0.783c-0.574,0.514-0.869,1.247-0.869,2.199v6.856
			c0,0.892,0.295,1.604,0.869,2.128c0.574,0.504,1.265,0.767,2.035,0.767c0.762,0,1.434-0.263,2.021-0.767
			c0.573-0.524,0.874-1.236,0.874-2.128v-6.856c0-0.952-0.305-1.686-0.874-2.199C127.486,87.374,126.813,87.111,126.058,87.111z
			 M126.931,97.239c0,0.587-0.309,0.877-0.873,0.877c-0.584,0-0.886-0.296-0.886-0.877v-7.523c0-0.574,0.302-0.869,0.886-0.869
			c0.575,0,0.873,0.295,0.873,0.869V97.239z"/>
		<path d="M144.707,64.731c-0.78,0-1.462,0.26-2.041,0.773c-0.569,0.518-0.864,1.251-0.864,2.215v6.847
			c0,0.895,0.295,1.606,0.864,2.123c0.579,0.509,1.27,0.774,2.041,0.774c0.766,0,1.441-0.266,2.021-0.774
			c0.569-0.517,0.868-1.229,0.868-2.123V67.72c0-0.964-0.304-1.697-0.868-2.215C146.148,64.991,145.468,64.731,144.707,64.731z
			 M145.579,74.852c0,0.588-0.309,0.875-0.872,0.875c-0.589,0-0.879-0.287-0.879-0.875v-7.519c0-0.582,0.29-0.875,0.879-0.875
			c0.569,0,0.872,0.298,0.872,0.875V74.852z"/>
		<path d="M144.707,87.111c-0.78,0-1.462,0.263-2.041,0.783c-0.569,0.514-0.864,1.247-0.864,2.199v6.856
			c0,0.892,0.295,1.604,0.864,2.128c0.579,0.504,1.27,0.767,2.041,0.767c0.766,0,1.441-0.263,2.021-0.767
			c0.569-0.524,0.868-1.236,0.868-2.128v-6.856c0-0.952-0.304-1.686-0.868-2.199C146.148,87.374,145.468,87.111,144.707,87.111z
			 M145.579,97.239c0,0.587-0.309,0.877-0.872,0.877c-0.589,0-0.879-0.296-0.879-0.877v-7.523c0-0.574,0.29-0.869,0.879-0.869
			c0.569,0,0.872,0.295,0.872,0.869V97.239z"/>
	</g>
</g>
<g>
</g>
<g>
</g>
<g>
</g>
<g>
</g>
<g>
</g>
<g>
</g>
<g>
</g>
<g>
</g>
<g>
</g>
<g>
</g>
<g>
</g>
<g>
</g>
<g>
</g>
<g>
</g>
<g>
</g>
</svg>
