<?xml version="1.0" standalone="no"?>
<!DOCTYPE svg PUBLIC "-//W3C//DTD SVG 20010904//EN"
 "http://www.w3.org/TR/2001/REC-SVG-20010904/DTD/svg10.dtd">
<svg version="1.0" xmlns="http://www.w3.org/2000/svg"
 width="997.000000pt" height="1280.000000pt" viewBox="0 0 997.000000 1280.000000"
 preserveAspectRatio="xMidYMid meet">
<metadata>
Created by potrace 1.15, written by Peter Selinger 2001-2017
</metadata>
<g transform="translate(0.000000,1280.000000) scale(0.100000,-0.100000)"
fill="#000000" stroke="none">
<path d="M4630 12793 c-282 -26 -423 -47 -605 -89 -60 -14 -173 -39 -250 -56
-77 -16 -176 -41 -220 -54 -44 -13 -152 -42 -240 -64 -177 -45 -281 -84 -454
-169 -64 -32 -168 -80 -231 -106 -139 -59 -161 -74 -200 -130 -24 -34 -41 -47
-82 -61 -29 -9 -74 -27 -100 -40 -26 -13 -71 -33 -101 -44 -31 -12 -79 -43
-119 -79 -109 -97 -255 -212 -393 -311 -261 -186 -408 -331 -548 -539 -49 -74
-122 -178 -161 -231 -40 -53 -90 -128 -111 -166 -21 -38 -73 -121 -117 -185
-82 -121 -82 -121 -149 -369 -41 -154 -52 -221 -70 -420 -14 -167 -64 -483
-93 -595 -13 -49 -31 -124 -41 -165 -20 -86 -74 -237 -205 -570 -114 -289
-143 -398 -137 -495 6 -85 49 -207 110 -313 172 -299 209 -455 173 -727 -21
-156 -20 -234 4 -325 28 -105 26 -126 -9 -144 -50 -27 -84 -123 -120 -344 -50
-302 -52 -618 -7 -869 30 -167 60 -248 120 -324 74 -95 147 -112 187 -44 25
42 175 144 223 152 69 11 197 -68 349 -216 95 -92 129 -161 147 -301 18 -147
-12 -299 -98 -495 -70 -158 -132 -351 -132 -408 0 -78 12 -95 104 -152 14 -9
12 -19 -19 -95 -68 -168 -82 -364 -36 -495 26 -74 26 -104 0 -155 -32 -61 -45
-168 -31 -251 7 -38 12 -83 12 -100 0 -44 14 -65 92 -145 71 -73 92 -110 165
-303 62 -164 69 -309 23 -441 -16 -47 -30 -92 -30 -101 0 -9 -27 -57 -59 -107
-89 -136 -136 -227 -172 -332 -26 -78 -32 -111 -33 -187 -1 -88 1 -94 42 -176
55 -107 122 -191 193 -240 62 -42 362 -150 464 -167 33 -5 157 -14 275 -20
118 -6 263 -15 322 -21 77 -7 191 -7 400 1 537 20 843 45 973 79 39 11 95 24
125 30 117 25 504 202 632 289 250 171 445 261 762 352 60 17 186 63 280 101
94 38 175 69 180 69 12 0 323 144 491 227 72 35 170 90 218 121 49 31 123 79
165 107 45 29 129 101 203 175 99 99 129 136 144 175 13 35 43 76 99 135 99
103 225 297 272 416 46 117 91 303 106 432 11 100 10 114 -11 207 -13 55 -48
186 -78 290 -35 123 -56 218 -60 269 l-6 79 74 -7 c83 -9 111 -21 154 -66 190
-204 647 6 915 419 110 169 175 260 254 355 44 53 104 143 147 220 121 220
218 358 364 516 95 104 272 362 330 480 20 41 46 93 57 115 60 112 79 159 102
250 61 241 85 512 66 750 -14 185 -7 244 55 445 20 63 42 153 50 200 9 47 22
105 30 130 28 87 46 197 71 435 23 223 50 446 90 740 20 152 14 243 -26 359
-34 103 -40 146 -14 125 8 -7 27 -34 40 -61 13 -26 28 -48 33 -48 14 0 23 532
11 665 -12 137 -35 280 -50 320 -6 15 -19 66 -29 114 -24 109 -110 337 -155
411 -19 30 -53 93 -76 139 -117 235 -303 481 -565 750 -212 217 -392 355 -501
383 -36 10 -62 26 -96 60 -34 35 -81 64 -170 107 -130 62 -182 81 -427 156
-85 26 -184 60 -221 76 -36 15 -96 33 -132 39 -48 9 -84 23 -130 53 -147 95
-534 251 -684 276 -32 5 -86 21 -118 35 -97 43 -239 73 -541 116 -175 25 -624
102 -755 130 -76 16 -187 34 -246 40 -100 9 -351 11 -434 3z m340 -113 c213
-16 397 -39 650 -80 129 -22 303 -49 385 -60 183 -25 363 -58 387 -71 27 -15
22 -29 -12 -29 -16 0 -30 -4 -30 -10 0 -14 91 -38 230 -61 177 -28 231 -41
227 -53 -6 -18 -74 -18 -133 -1 -31 9 -59 13 -63 10 -11 -12 31 -34 83 -43 28
-5 132 -24 232 -41 189 -33 254 -49 254 -62 0 -4 -16 -14 -37 -21 l-36 -13 39
-6 c123 -19 305 -63 349 -83 28 -13 66 -37 85 -53 51 -44 103 -67 210 -92 125
-30 301 -80 320 -93 10 -6 -13 -8 -68 -4 -46 2 -82 3 -80 1 7 -7 304 -124 331
-131 16 -3 32 -16 37 -29 12 -32 93 -100 159 -133 31 -16 70 -42 87 -58 17
-16 92 -61 165 -100 133 -70 137 -74 169 -144 4 -8 33 -28 65 -45 73 -38 147
-102 143 -124 -2 -9 -16 -18 -33 -21 -40 -7 -38 -28 5 -49 25 -12 36 -24 41
-49 9 -44 15 -48 51 -34 38 14 56 -2 32 -29 -7 -8 -14 -25 -14 -37 0 -11 -4
-24 -10 -27 -17 -11 -12 -20 60 -99 71 -77 78 -90 60 -101 -19 -12 -10 -22 30
-34 35 -10 41 -17 51 -54 6 -23 24 -56 41 -74 27 -28 30 -37 25 -70 -6 -35 -1
-47 40 -108 27 -41 41 -71 35 -73 -7 -2 -12 -10 -12 -18 0 -18 50 -94 61 -94
7 0 54 -80 68 -115 2 -5 -13 5 -33 24 -72 70 -51 13 56 -147 64 -94 71 -114
34 -84 -37 28 -46 28 -46 -3 0 -35 -31 -33 -74 6 -64 56 -57 26 17 -73 112
-149 137 -212 78 -193 -12 3 -70 42 -131 85 -117 84 -170 116 -170 102 0 -5
23 -38 50 -72 28 -35 48 -66 44 -69 -3 -3 -10 2 -16 13 -10 17 -65 46 -89 46
-7 0 -9 -10 -5 -30 3 -16 3 -30 0 -30 -3 0 -45 35 -94 79 -79 69 -134 100
-150 84 -3 -2 11 -18 30 -35 136 -118 180 -162 269 -268 56 -66 95 -120 89
-120 -6 0 -96 85 -199 189 -189 191 -234 227 -389 319 -258 151 -470 243 -470
204 0 -5 77 -49 172 -98 295 -153 515 -311 703 -505 115 -120 166 -184 234
-297 53 -89 151 -317 151 -353 0 -36 -17 -11 -44 65 -47 129 -219 386 -258
386 -18 0 -6 -30 43 -111 97 -159 186 -357 174 -387 -4 -12 -17 4 -46 55 -39
71 -68 106 -56 67 3 -10 12 -41 21 -69 8 -27 29 -88 46 -135 52 -141 101 -348
76 -319 -2 2 -27 69 -55 149 -70 196 -70 196 -92 216 -18 16 -19 16 -19 -10 0
-15 13 -57 28 -94 30 -70 126 -400 135 -464 8 -53 -8 -56 -26 -6 -111 314
-126 312 -43 -6 44 -167 31 -182 -40 -43 l-47 92 7 -60 c4 -33 17 -103 31
-155 34 -136 54 -260 62 -376 9 -146 -11 -188 -27 -59 -10 78 -21 95 -51 77
-18 -12 -21 -9 -40 33 -11 25 -24 45 -29 45 -15 0 -12 -143 5 -245 8 -49 18
-130 21 -178 4 -48 11 -90 15 -93 12 -7 57 43 74 82 8 17 17 55 21 85 15 117
40 86 32 -40 -3 -61 -8 -75 -37 -111 -24 -30 -35 -56 -40 -96 -4 -30 -11 -57
-14 -60 -10 -10 -37 16 -37 36 0 9 -12 39 -27 66 -23 42 -27 66 -33 170 -7
116 -23 194 -40 194 -16 0 -17 -71 -2 -267 14 -190 11 -297 -8 -263 -11 22
-20 102 -30 288 -9 158 -18 218 -39 252 -22 33 -23 -9 -7 -199 17 -207 13
-257 -19 -245 -30 12 -35 44 -35 216 0 135 -3 179 -14 194 -22 29 -25 10 -28
-193 -2 -128 -7 -186 -15 -194 -7 -7 -16 -9 -20 -5 -5 4 -10 92 -13 196 -7
270 -19 258 -35 -35 -7 -108 -17 -151 -36 -140 -5 4 -9 68 -9 143 -1 124 -10
215 -22 228 -3 2 -18 -2 -34 -11 -18 -9 -57 -15 -103 -15 l-75 0 35 36 c29 30
34 42 34 84 0 37 -5 54 -24 74 -28 30 -82 50 -110 41 -32 -10 -138 -7 -159 4
-11 6 -25 24 -31 41 -9 26 -25 38 -106 75 -125 58 -201 108 -224 146 l-19 32
-7 -47 c-4 -25 -5 -52 -2 -61 4 -8 39 -31 78 -51 40 -20 93 -50 119 -67 26
-18 62 -40 79 -49 28 -15 31 -22 31 -63 0 -53 -9 -52 151 -28 63 9 123 14 132
10 20 -8 23 -61 6 -134 -13 -59 -1 -98 36 -115 22 -10 30 -8 55 10 37 28 64
28 89 1 33 -35 34 -69 6 -142 -14 -37 -25 -75 -25 -84 0 -9 41 -56 90 -103
l90 -86 -1 -110 c-1 -60 5 -131 11 -157 7 -27 10 -72 7 -102 -13 -129 -142
-362 -289 -524 -178 -196 -170 -183 -154 -222 5 -11 -16 -38 -69 -91 -77 -77
-89 -98 -56 -98 11 0 33 20 54 49 19 26 67 72 107 101 50 38 73 62 77 81 3 16
22 47 41 70 23 27 32 44 24 47 -20 6 -14 22 8 22 34 0 63 42 166 238 106 204
159 292 173 292 5 0 1 -31 -9 -69 -62 -224 -266 -558 -396 -651 -57 -40 -154
-129 -154 -141 0 -4 23 -1 51 7 90 27 74 -4 -26 -52 -27 -13 -61 -24 -75 -24
-14 0 -38 -7 -54 -15 -49 -26 -236 -46 -236 -26 0 14 50 29 116 35 93 8 116
23 77 51 -15 11 -15 15 5 43 26 35 27 42 9 42 -17 0 -50 -37 -65 -72 -12 -28
-26 -36 -36 -19 -3 5 3 28 13 52 11 24 18 45 17 47 -2 1 -27 -12 -55 -29 -55
-35 -74 -33 -47 3 43 60 48 69 44 73 -2 3 -21 -5 -42 -16 -21 -11 -40 -18 -43
-15 -3 3 65 78 151 167 86 89 154 164 151 167 -2 3 -51 -40 -108 -95 -125
-120 -170 -156 -194 -151 -13 2 4 26 75 100 50 53 92 100 92 104 0 10 -34 -19
-133 -118 -83 -82 -127 -112 -134 -92 -14 38 -21 37 -109 -19 -87 -54 -144
-78 -144 -60 0 5 18 27 41 48 22 22 52 60 67 85 14 25 45 68 68 95 23 28 63
84 88 126 50 83 102 194 87 185 -5 -4 -46 -64 -90 -134 -104 -164 -143 -208
-205 -230 -32 -11 -52 -25 -57 -40 -7 -19 -5 -22 14 -22 13 0 28 5 35 12 8 8
12 9 12 1 0 -12 -47 -53 -61 -53 -5 0 -9 7 -9 15 0 24 -31 17 -90 -21 -45 -29
-56 -32 -58 -18 -5 20 29 57 85 92 50 32 55 46 13 37 -16 -4 -30 -3 -30 0 0 4
15 42 34 84 42 94 50 121 37 121 -5 0 -42 -54 -83 -121 -75 -124 -159 -229
-183 -229 -8 0 -18 8 -23 17 -8 14 -14 15 -40 4 -16 -7 -44 -28 -63 -47 -18
-19 -37 -34 -41 -34 -25 0 4 37 112 143 106 105 152 157 135 157 -3 0 -55 -47
-117 -104 -61 -58 -134 -117 -162 -132 -28 -15 -55 -33 -59 -41 -9 -15 -47
-18 -47 -4 0 5 28 33 63 61 34 29 66 59 70 67 5 8 23 23 40 33 59 36 269 235
325 309 32 40 78 101 104 134 56 73 101 153 95 170 -2 6 -16 -8 -32 -33 -15
-25 -67 -94 -114 -155 -126 -161 -375 -414 -332 -338 5 10 38 50 71 88 68 77
210 283 210 304 0 8 -12 -4 -26 -25 -90 -134 -351 -401 -371 -380 -7 7 -3 13
122 161 146 172 182 253 51 115 -36 -38 -75 -88 -86 -110 -24 -48 -96 -123
-112 -118 -22 8 -18 25 17 71 19 25 35 49 35 52 0 11 -158 -75 -185 -101 -26
-24 -27 -34 -11 -74 4 -11 -11 -24 -54 -47 -69 -37 -79 -26 -25 27 22 21 35
43 35 59 0 20 14 37 57 71 32 25 69 51 83 59 14 7 36 24 50 36 14 13 50 35 81
49 64 30 129 96 174 176 42 77 57 101 81 135 55 77 275 565 255 565 -4 0 -70
-127 -148 -282 -78 -156 -164 -317 -192 -358 -28 -41 -51 -80 -51 -86 0 -17
-63 -72 -102 -88 -20 -9 -58 -34 -85 -57 -58 -51 -170 -106 -185 -91 -13 13
42 55 97 73 39 14 125 88 125 109 0 20 -26 9 -75 -31 -57 -47 -102 -72 -115
-64 -11 7 4 49 69 190 28 61 51 117 51 125 0 9 7 26 16 38 8 12 14 28 11 35
-2 6 -36 -51 -75 -128 -96 -189 -164 -299 -188 -304 -18 -3 -18 -2 -1 16 20
23 52 111 43 120 -3 3 -12 0 -21 -7 -31 -26 -27 2 13 94 23 52 42 99 42 104 0
6 14 44 30 85 32 81 36 97 20 97 -5 0 -14 -19 -21 -42 -6 -24 -56 -122 -111
-218 -123 -217 -177 -327 -185 -377 -3 -21 -13 -46 -21 -55 -14 -16 -13 -18 4
-18 14 0 32 28 74 116 79 165 133 225 75 82 -36 -89 -33 -115 9 -83 26 20 41
7 20 -16 -9 -10 -30 -19 -46 -19 -30 0 -72 -34 -65 -53 2 -7 12 -11 21 -11 46
4 -16 -47 -82 -68 -39 -12 -42 -15 -42 -50 0 -40 -27 -68 -66 -68 -37 0 -47
25 -52 130 -4 95 -4 99 21 124 14 14 35 26 45 26 28 0 82 20 82 31 0 5 -11 9
-25 9 -31 0 -40 30 -32 102 7 55 50 158 66 158 16 0 13 -27 -5 -55 -9 -14 -12
-25 -7 -25 16 0 40 33 47 63 4 15 19 49 35 75 28 46 47 92 38 92 -3 0 -23 -30
-46 -66 -44 -70 -63 -76 -54 -17 13 76 -42 -9 -94 -147 -14 -36 -30 -72 -38
-80 -7 -8 -15 -35 -19 -60 -10 -69 -20 -80 -48 -52 -21 21 -23 31 -21 110 2
48 9 124 16 170 14 83 6 118 -14 65 -19 -51 -30 -127 -35 -258 -3 -71 -7 -150
-10 -175 -5 -39 -7 -42 -17 -25 -8 14 -12 92 -12 243 0 246 -8 260 -39 62 -18
-115 -38 -155 -77 -155 -19 0 -27 8 -37 39 -18 56 -28 342 -12 381 20 51 29
11 35 -161 3 -87 9 -170 12 -184 11 -44 22 42 22 172 1 202 38 422 85 517 13
25 34 75 46 111 29 81 42 97 107 126 54 24 64 40 78 130 9 58 36 84 86 84 88
0 229 116 229 189 l-1 26 -27 -32 c-15 -18 -48 -42 -74 -53 -26 -11 -61 -32
-78 -47 -28 -23 -37 -25 -85 -19 -75 9 -84 -1 -104 -118 -10 -54 -18 -67 -78
-132 -38 -40 -78 -85 -90 -101 l-22 -28 -1 75 c-1 72 -1 74 -15 48 -20 -36
-73 -254 -84 -346 -7 -54 -17 -85 -38 -115 -15 -23 -39 -64 -53 -92 -15 -30
-38 -57 -57 -68 -31 -18 -32 -18 -43 3 -14 27 -4 60 19 60 14 0 19 14 28 78
21 146 94 557 114 636 11 43 18 81 15 84 -15 14 -37 -28 -53 -100 -11 -53 -27
-94 -47 -123 -34 -46 -117 -115 -141 -115 -19 0 -42 79 -51 180 -4 45 -12 86
-18 91 -6 5 -23 18 -38 30 -16 11 -28 27 -28 35 0 17 12 18 28 2 8 -8 14 -5
22 16 15 41 12 64 -11 71 -15 5 -17 10 -9 20 13 16 -7 25 -55 25 -19 0 -37 4
-40 10 -8 14 72 267 102 318 33 57 85 89 174 107 107 22 124 31 157 85 16 26
54 66 83 88 62 46 87 72 119 125 21 37 25 39 64 34 22 -2 55 -10 73 -18 38
-16 53 -6 30 19 -25 27 -21 76 8 110 50 59 59 97 60 242 1 128 3 138 30 195
24 50 29 73 30 136 0 66 -4 84 -33 138 -38 72 -38 79 -12 131 24 47 26 112 4
171 -11 33 -14 63 -9 120 6 72 5 77 -20 107 -15 18 -33 32 -40 32 -7 0 -19 7
-26 16 -11 14 -10 20 14 40 16 13 34 24 41 24 8 0 20 8 27 17 12 15 12 16 -6
9 -48 -20 -65 -19 -65 3 0 29 13 54 62 118 86 113 81 212 -11 229 -26 5 -57 0
-118 -21 -45 -16 -86 -26 -89 -22 -10 10 33 53 93 93 57 39 87 89 77 129 -10
39 -42 50 -121 39 -63 -8 -68 -11 -71 -35 -2 -15 4 -32 14 -39 14 -12 23 -12
62 3 105 37 61 -34 -66 -106 -83 -47 -101 -78 -62 -109 28 -23 116 -24 186 -3
65 20 113 19 121 -1 10 -26 -19 -73 -106 -174 -145 -170 -153 -219 -42 -257
35 -12 68 -26 73 -31 5 -5 2 -24 -7 -45 -20 -49 -19 -80 5 -127 28 -55 25
-103 -11 -181 l-32 -69 36 -40 c41 -44 43 -52 52 -168 l6 -82 -55 -58 c-31
-33 -56 -64 -56 -70 0 -6 11 -32 25 -58 29 -55 33 -117 10 -172 -20 -48 -48
-76 -113 -118 -57 -37 -87 -77 -97 -131 -4 -24 -21 -48 -52 -76 -26 -23 -76
-70 -112 -104 -78 -72 -101 -83 -183 -83 l-62 0 -78 -80 c-120 -123 -174 -149
-180 -87 l-3 32 -38 -40 c-21 -22 -52 -69 -69 -103 -30 -61 -71 -103 -85 -88
-4 3 3 27 15 51 28 58 29 80 3 65 -36 -19 -44 -13 -38 33 2 23 8 51 13 62 7
18 6 19 -10 6 -10 -8 -35 -50 -57 -92 -41 -82 -59 -103 -59 -70 0 11 5 23 10
26 11 7 13 54 4 79 -3 9 -12 16 -20 16 -9 0 -14 11 -14 30 0 29 -1 30 -49 30
-35 0 -51 4 -55 16 -8 20 -26 8 -26 -17 0 -11 -4 -17 -10 -14 -5 3 -10 22 -10
41 0 34 -29 62 -38 36 -2 -7 -7 -12 -11 -12 -5 0 -1 34 7 74 16 83 12 116 -13
96 -24 -20 -29 -4 -17 51 15 62 15 82 2 74 -5 -3 -10 -16 -10 -29 0 -13 -12
-31 -31 -45 l-31 -23 2 38 c4 55 2 64 -13 58 -8 -3 -18 6 -25 21 -6 14 -17 25
-23 25 -21 0 -3 101 36 198 21 51 62 132 93 180 82 128 114 190 110 209 -2 13
-23 -6 -72 -65 -59 -71 -130 -135 -229 -204 -13 -9 -43 -48 -65 -87 -23 -38
-51 -73 -62 -76 -11 -3 -20 -13 -20 -20 0 -17 -33 -36 -75 -45 -34 -7 -51 -50
-20 -50 14 0 16 -6 12 -32 -3 -18 -9 -55 -13 -81 -9 -67 -28 -54 -34 24 -5 68
-20 60 -20 -12 0 -43 -14 -53 -24 -16 -6 26 4 95 28 197 21 85 20 89 -9 100
l-24 9 18 54 c10 30 26 68 35 85 20 40 20 53 -1 45 -14 -6 -15 1 -10 56 l5 63
-30 -28 c-60 -58 -188 -358 -188 -442 0 -41 -18 -14 -25 38 -5 33 -1 76 11
130 17 82 14 105 -10 79 -25 -25 -48 -112 -53 -204 -5 -82 -3 -95 19 -140 14
-28 31 -67 37 -87 7 -20 30 -64 52 -98 22 -34 38 -64 36 -66 -2 -3 -37 23 -77
56 -40 34 -75 59 -77 56 -3 -3 9 -27 26 -53 18 -27 27 -49 21 -51 -6 -2 -41
21 -78 51 -84 68 -92 72 -183 93 -75 17 -114 33 -159 65 -65 46 -259 83 -483
93 l-118 4 -117 -97 c-154 -129 -307 -287 -315 -326 -3 -17 -20 -61 -38 -100
-31 -65 -33 -68 -37 -40 -2 17 3 44 11 60 9 17 24 50 35 75 36 84 193 271 292
346 53 40 61 54 32 54 -26 0 -229 -155 -246 -188 -8 -16 -22 -34 -31 -42 -29
-24 -30 1 0 55 16 30 26 57 23 61 -4 3 -27 -13 -52 -36 -49 -45 -112 -157
-121 -216 -3 -19 -8 -50 -11 -70 -9 -58 -19 -29 -19 54 0 61 -3 77 -15 77 -9
0 -19 -22 -30 -65 -15 -66 -33 -85 -38 -40 -8 78 -14 110 -21 110 -5 0 -14
-24 -22 -52 -11 -41 -19 -54 -36 -56 -21 -3 -43 -45 -43 -83 0 -34 -17 -20
-38 31 -21 50 -42 66 -42 33 0 -10 17 -66 37 -125 49 -138 39 -155 -30 -49
-24 37 -47 51 -47 28 0 -19 92 -174 130 -219 38 -45 70 -53 135 -33 119 36
206 9 235 -73 20 -57 9 -71 -76 -97 -38 -12 -99 -33 -136 -48 -36 -15 -80 -27
-98 -27 -38 0 -97 29 -129 64 -22 24 -31 26 -101 26 -62 0 -82 4 -103 20 -34
27 -60 25 -99 -9 -50 -43 -75 -54 -98 -41 -20 11 -42 75 -55 157 -6 39 -5 44
20 55 14 6 24 17 21 24 -13 33 -27 97 -22 101 10 10 26 -9 26 -30 0 -12 7 -31
15 -41 8 -11 15 -34 15 -52 0 -70 21 -83 47 -29 16 33 16 35 -15 97 -33 67
-117 178 -141 186 -10 3 -12 -3 -9 -27 l5 -32 -25 24 c-19 19 -26 40 -33 102
-5 51 -15 85 -26 97 -15 17 -18 39 -18 132 0 125 17 160 26 54 6 -73 10 -83
33 -75 45 18 140 430 95 415 -8 -3 -17 -21 -20 -42 -7 -43 -21 -61 -43 -53
-10 4 -16 19 -16 39 -1 52 -16 14 -30 -72 -16 -103 -16 -103 -41 -90 -11 7
-23 9 -26 7 -8 -9 -43 -240 -49 -333 -6 -81 -9 -91 -25 -87 -21 6 -44 -27 -55
-82 -8 -38 -8 -39 -12 -10 -2 16 2 55 8 86 10 48 10 60 -4 88 -22 41 -36 31
-36 -24 0 -53 -10 -61 -43 -35 -32 25 -33 25 -41 -2 -10 -38 -26 -1 -26 62 -2
121 -29 180 -48 103 -6 -21 -13 -51 -17 -68 l-8 -30 -9 39 c-4 22 -13 45 -19
53 -16 18 -37 16 -41 -4 -6 -28 -27 18 -42 90 -17 85 -36 87 -36 3 0 -36 -3
-66 -8 -66 -10 0 -48 101 -68 183 -9 37 -20 67 -25 67 -5 0 -9 -22 -9 -48 0
-27 -3 -52 -7 -56 -4 -4 -21 7 -38 24 -65 66 -102 90 -138 90 -37 0 -47 12
-47 55 0 32 -17 41 -40 20 -18 -17 -20 -16 -29 6 -6 13 -15 43 -21 67 -16 64
-43 86 -95 79 -33 -5 -44 -3 -49 8 -9 24 -30 17 -55 -16 -19 -26 -27 -29 -52
-24 -21 5 -36 1 -55 -14 -31 -24 -44 -20 -44 15 0 37 -17 29 -52 -26 -18 -27
-39 -50 -45 -50 -15 0 -15 1 -4 58 8 40 7 42 -13 36 -11 -3 -45 -22 -75 -41
-42 -27 -66 -36 -106 -38 -28 -1 -75 -10 -103 -19 -42 -14 -57 -25 -73 -54
l-20 -37 6 60 c3 33 22 122 41 199 20 76 39 178 44 225 4 48 13 104 18 126 19
73 35 248 28 322 -4 50 -14 89 -31 121 -30 55 -34 140 -9 187 13 25 13 36 3
67 -13 40 -11 83 16 327 11 106 22 160 41 205 14 34 34 88 44 121 36 125 128
268 225 350 41 35 55 56 64 89 6 24 32 72 57 106 26 35 63 94 83 131 29 54 72
101 217 241 100 96 222 206 272 244 50 39 153 127 229 197 144 132 476 384
577 438 40 22 80 34 126 39 49 5 77 15 102 33 56 42 236 127 322 152 46 13
199 65 342 115 142 50 337 116 433 146 217 67 265 70 379 22 74 -32 82 -33
202 -32 69 1 196 4 283 9 l157 7 0 68 c0 89 -12 84 180 70z m2754 -680 c14 -5
26 -14 26 -20 0 -13 -76 -13 -101 1 -44 23 20 40 75 19z m120 -30 c28 -10 34
-25 13 -33 -17 -6 -88 23 -81 34 7 12 36 11 68 -1z m692 -306 c7 -28 -9 -74
-26 -74 -5 0 -10 15 -10 34 0 64 24 90 36 40z m774 -869 c21 -22 21 -25 6 -31
-19 -7 -69 33 -60 47 9 16 30 10 54 -16z m229 -479 c29 -31 11 -35 -30 -5 -32
23 -42 57 -11 40 9 -5 28 -21 41 -35z m-53 -888 c58 -62 75 -88 34 -53 -45 39
-95 95 -83 95 5 0 27 -19 49 -42z m314 -102 c0 -70 -31 -88 -69 -40 -27 34
-26 40 4 48 14 4 25 11 25 16 0 6 9 10 20 10 16 0 20 -7 20 -34z m-46 -116
c37 -41 43 -55 27 -65 -12 -7 -91 74 -91 92 0 25 28 13 64 -27z m-9224 -445
c0 -14 -15 -65 -33 -113 -19 -48 -37 -99 -41 -114 -3 -16 -10 -28 -15 -28 -18
0 -21 33 -6 64 9 17 18 51 21 76 7 54 23 110 37 128 16 21 37 14 37 -13z
m-119 -133 c-13 -95 -38 -182 -53 -182 -18 0 -4 99 27 194 16 48 31 82 33 76
2 -6 -1 -45 -7 -88z m4619 50 c0 -20 -36 -59 -46 -50 -8 8 24 68 36 68 6 0 10
-8 10 -18z m4653 -109 c22 -71 26 -93 16 -93 -14 0 -30 38 -38 91 -10 62 3 63
22 2z m-4393 -164 c-7 -16 -16 -29 -21 -29 -16 0 -9 58 9 76 16 17 17 17 20 0
2 -10 -2 -31 -8 -47z m-4475 -68 c-8 -17 -20 -31 -26 -31 -14 0 -3 47 19 80
17 25 17 25 20 3 2 -12 -4 -35 -13 -52z m4354 -81 c-10 -52 -24 -106 -30 -120
l-11 -25 -9 23 c-12 31 5 111 36 173 15 28 28 49 30 47 2 -1 -5 -46 -16 -98z
m-4829 -89 c0 -32 -11 -51 -30 -51 -23 0 -33 26 -20 51 14 25 50 25 50 0z
m-135 -251 c9 -14 -5 -100 -16 -100 -5 0 -14 11 -21 25 -17 38 17 108 37 75z
m-75 -92 c26 -44 27 -98 1 -98 -24 0 -56 78 -46 111 9 28 23 23 45 -13z m5110
-13 c17 -9 30 -22 30 -30 0 -25 -35 -17 -65 15 -23 24 -25 30 -11 30 9 0 30
-7 46 -15z m-2162 -134 c3 -24 2 -32 -6 -27 -14 8 -32 72 -31 106 1 23 2 22
16 -10 8 -19 18 -50 21 -69z m2326 27 c18 -30 -4 -33 -32 -4 l-27 28 24 -4
c13 -2 29 -11 35 -20z m720 13 c3 -5 -24 -49 -62 -99 -67 -89 -67 -89 -70 -56
-7 73 103 202 132 155z m-3853 -97 c10 -42 30 -91 43 -108 35 -46 66 -111 98
-206 l28 -84 -52 -54 c-29 -29 -70 -62 -90 -73 -38 -20 -68 -62 -68 -97 0 -11
-30 -53 -66 -93 -68 -76 -122 -170 -144 -249 -9 -30 -12 -106 -11 -222 2 -196
-11 -320 -40 -386 -66 -151 -123 201 -59 370 42 113 6 141 -50 39 -56 -103
-73 -93 -45 27 18 78 34 108 85 167 44 51 49 71 21 80 -38 12 -56 45 -61 114
-7 88 -25 91 -106 22 -54 -47 -84 -62 -84 -43 0 12 35 65 126 190 107 146 159
228 168 264 3 15 27 44 52 64 25 21 49 47 53 57 6 17 67 46 97 47 6 0 23 -11
38 -25 23 -21 25 -27 14 -45 -16 -25 -1 -54 31 -58 31 -5 36 21 22 102 -28
157 -41 261 -36 274 9 23 15 10 36 -74z m-624 -154 c-3 -27 -15 -69 -26 -92
l-19 -43 -1 35 c0 19 6 46 14 60 8 14 14 40 15 58 0 17 5 32 11 32 8 0 10 -16
6 -50z m3981 -24 c20 -30 122 -253 173 -379 23 -57 26 -96 4 -54 -8 15 -36 53
-63 83 -47 53 -79 117 -154 311 -32 83 -7 108 40 39z m-4195 -21 c-4 -49 -23
-54 -23 -6 0 30 4 41 13 38 6 -2 11 -17 10 -32z m-528 -71 c0 -28 -4 -39 -15
-39 -16 0 -26 45 -16 72 11 28 31 7 31 -33z m408 -262 c5 -8 4 -19 -4 -28 -14
-18 -6 -158 16 -249 15 -68 12 -75 -42 -90 -56 -16 -61 -34 -28 -98 16 -31 26
-59 22 -63 -3 -4 -31 19 -62 50 -47 50 -53 60 -44 78 12 21 6 48 -11 48 -5 0
-10 -12 -10 -26 0 -16 -5 -24 -12 -21 -29 9 -7 247 23 247 5 0 9 -36 9 -79 0
-71 3 -82 22 -95 30 -21 36 -13 31 38 -4 30 0 60 11 87 12 30 20 97 27 238 5
108 12 205 16 216 4 11 12 -36 18 -110 5 -71 14 -136 18 -143z m3601 165 c-1
-24 -14 -58 -37 -94 -40 -65 -64 -82 -53 -37 12 47 12 48 -12 52 -30 5 -23 24
12 33 46 13 77 49 41 49 -18 0 -20 26 -2 34 6 2 21 4 32 3 16 -2 20 -9 19 -40z
m-2211 3 c29 -25 43 -30 86 -30 35 0 53 -4 57 -14 3 -8 -8 -57 -25 -110 -27
-85 -31 -110 -31 -215 0 -174 34 -329 105 -473 29 -60 80 -128 96 -128 17 0 9
27 -35 121 -25 52 -56 129 -70 171 -27 78 -66 289 -65 343 1 57 23 99 62 118
20 9 37 20 37 25 0 4 -14 15 -30 24 -50 28 -14 68 61 68 24 0 29 -4 25 -17
-16 -57 -28 -199 -24 -296 4 -87 11 -128 30 -182 14 -38 36 -99 48 -135 13
-36 36 -95 53 -131 50 -112 25 -97 -40 23 -87 161 -133 319 -148 511 -4 42
-11 75 -16 71 -13 -8 -10 -168 5 -254 19 -105 58 -217 121 -345 91 -188 168
-273 177 -198 5 41 23 38 43 -6 10 -22 26 -48 36 -57 38 -34 21 21 -32 101
-140 215 -206 376 -83 205 33 -47 78 -114 99 -150 50 -84 136 -192 181 -226
30 -23 39 -26 55 -16 21 14 56 0 115 -44 31 -24 64 -32 64 -15 0 12 -69 99
-105 131 -33 31 -50 60 -35 60 7 0 62 -48 123 -108 133 -128 327 -268 434
-312 199 -83 645 -139 879 -111 387 47 658 237 778 546 15 39 32 84 39 100 6
17 29 49 50 72 l39 43 -7 145 -7 145 25 0 c14 0 39 -11 55 -25 65 -54 166
-301 196 -476 17 -97 14 -142 -11 -192 -8 -16 -12 -35 -9 -43 3 -9 -1 -31 -9
-51 -19 -45 -19 -104 -1 -148 17 -40 28 -43 48 -14 19 29 36 19 126 -75 88
-93 96 -116 54 -159 -20 -21 -32 -47 -37 -77 -8 -52 -20 -70 -45 -70 -25 0
-28 -12 -45 -193 -17 -178 -29 -257 -51 -331 -16 -58 -18 -90 -4 -81 17 11 23
-25 9 -51 -14 -27 -47 -50 -57 -40 -3 4 0 12 6 18 19 19 14 48 -8 48 -25 0
-26 20 -1 101 45 148 68 549 32 549 -5 0 -11 -71 -14 -157 -5 -156 -12 -211
-43 -348 -17 -71 -70 -181 -100 -206 -16 -13 -17 -11 -11 14 4 15 10 39 13 55
l7 27 -27 -24 c-14 -14 -40 -47 -57 -73 -18 -27 -33 -47 -36 -45 -2 3 14 47
36 99 53 123 90 263 98 367 5 67 4 83 -7 79 -21 -7 -39 -71 -55 -192 -12 -96
-20 -124 -59 -201 -25 -49 -59 -106 -76 -125 -29 -33 -31 -33 -27 -10 3 14 25
72 50 130 38 90 60 159 84 268 9 40 -25 26 -36 -15 -6 -21 -18 -65 -27 -98
-38 -140 -130 -312 -204 -379 -67 -60 -85 -44 -21 18 22 21 42 50 46 65 4 14
17 40 30 56 13 17 28 47 33 65 6 19 27 72 47 118 50 113 61 232 16 178 -6 -7
-18 -44 -27 -82 -25 -109 -53 -183 -102 -271 -43 -79 -102 -150 -102 -125 0 7
27 70 60 140 65 139 72 171 40 179 -28 7 -21 25 18 43 40 19 36 34 -12 38 -53
5 -79 -17 -120 -99 -20 -39 -60 -97 -90 -130 -30 -32 -57 -67 -61 -78 -16 -50
-61 -23 -52 32 l6 32 -35 -40 c-20 -22 -41 -52 -46 -67 -9 -26 -43 -46 -55
-34 -4 3 -1 24 6 47 15 50 9 59 -16 24 -33 -48 -71 -90 -77 -85 -3 3 6 41 19
83 14 43 25 88 25 101 0 12 6 44 14 70 9 31 11 46 4 44 -6 -2 -20 -35 -30 -72
-32 -118 -82 -205 -104 -183 -3 2 4 31 15 63 25 75 37 154 23 154 -13 0 -37
-62 -47 -117 -3 -22 -16 -49 -27 -60 -20 -18 -20 -18 -17 52 2 40 0 72 -6 75
-5 3 -23 -36 -40 -87 -16 -50 -33 -95 -38 -99 -4 -4 -7 45 -7 109 0 94 -3 115
-14 111 -17 -7 -26 24 -26 101 l-1 60 -34 -65 c-40 -76 -41 -71 -23 97 9 83 9
116 1 124 -8 8 -17 -7 -32 -57 -28 -93 -29 -94 -71 -76 -33 13 -33 15 -14 23
28 10 31 15 48 89 l15 63 -40 -39 -39 -38 0 46 c0 28 -6 50 -15 58 -12 10 -18
6 -35 -22 l-20 -33 0 97 0 98 -32 13 c-18 8 -55 36 -83 62 -99 94 -161 119
-325 129 -52 4 -141 16 -198 28 -88 18 -107 19 -128 8 -21 -12 -30 -11 -59 3
-44 21 -118 22 -135 2 -13 -15 -2 -23 64 -42 17 -5 32 -15 34 -23 5 -13 -56
-11 -181 6 -42 6 -51 4 -73 -17 -25 -23 -74 -110 -88 -155 -11 -34 16 -51 94
-58 58 -6 73 -11 85 -30 14 -21 14 -28 0 -68 -8 -25 -40 -93 -71 -153 -36 -70
-52 -111 -46 -117 15 -15 27 -4 72 62 22 32 58 71 81 87 23 15 45 35 49 43 4
8 14 28 21 43 15 33 79 110 86 103 3 -2 -15 -51 -39 -108 -25 -57 -48 -116
-52 -133 -7 -28 -7 -29 11 -13 10 9 42 61 71 115 29 54 61 109 72 123 l20 25
0 -26 c0 -15 -22 -80 -49 -145 -27 -65 -47 -123 -44 -128 10 -15 44 36 118
176 80 153 96 149 45 -10 -17 -53 -33 -103 -35 -109 -3 -7 0 -13 6 -13 6 0 25
33 44 73 91 198 84 90 -11 -150 -36 -92 -68 -183 -71 -200 -9 -54 27 -37 41
19 9 38 196 415 196 395 0 -23 -43 -157 -106 -330 -30 -81 -54 -160 -54 -175
l1 -27 18 22 c10 12 35 68 56 125 47 128 116 277 121 262 5 -13 -80 -297 -130
-436 -40 -109 -67 -216 -65 -256 l1 -27 7 25 c3 14 14 39 23 56 9 17 35 82 58
145 79 215 81 161 6 -151 -60 -247 -84 -376 -72 -387 19 -20 48 72 116 372 52
231 68 286 134 470 35 98 50 97 22 -1 -8 -27 -24 -99 -36 -161 -11 -62 -28
-132 -36 -155 -8 -24 -33 -117 -55 -207 l-39 -164 26 -28 c26 -27 26 -30 14
-76 -6 -26 -14 -104 -16 -173 -4 -121 -4 -124 11 -85 16 40 38 144 96 460 17
94 39 193 49 220 10 28 21 72 24 98 6 51 42 144 52 134 3 -3 -6 -54 -21 -114
-39 -160 -55 -240 -65 -322 -6 -41 -14 -79 -19 -85 -5 -6 -12 -31 -16 -56 -4
-25 -11 -52 -16 -61 -4 -9 -13 -67 -19 -130 -6 -63 -19 -168 -30 -234 -10 -66
-22 -158 -25 -205 -3 -47 -8 -104 -11 -127 l-5 -43 -89 0 c-147 0 -224 -23
-308 -94 -57 -47 -100 -60 -151 -46 -50 13 -107 77 -119 134 l-9 41 -7 -70
c-11 -99 -13 -103 -59 -127 -23 -11 -62 -34 -86 -51 l-44 -30 -86 17 c-47 9
-94 16 -103 16 -24 0 -44 36 -54 95 -5 35 -9 42 -11 25 -7 -42 -24 -90 -33
-90 -9 0 -17 35 -23 100 l-3 35 -13 -32 c-7 -18 -17 -33 -22 -33 -14 0 -29 71
-36 175 l-7 100 -13 -65 c-8 -44 -11 -107 -6 -196 6 -147 1 -167 -49 -183 -40
-12 -211 -35 -252 -33 -48 2 -119 52 -133 93 -6 20 -14 128 -18 240 -6 192
-19 351 -31 384 -18 46 -35 -13 -59 -200 -16 -130 -40 -218 -59 -212 -7 2 -13
45 -16 118 -3 78 -7 105 -12 84 -16 -64 -38 -213 -49 -324 -6 -64 -15 -126
-20 -138 -12 -32 -45 -29 -98 7 -43 29 -98 50 -134 50 -10 0 -20 6 -23 14 -3
8 6 77 20 153 28 150 36 240 22 245 -5 2 -22 -28 -38 -67 -53 -129 -68 -114
-68 72 0 129 -7 160 -32 135 -6 -6 -14 -31 -19 -57 -11 -59 -86 -216 -130
-274 -68 -88 -69 -108 -4 -136 39 -16 45 -31 15 -40 -34 -11 -90 6 -107 32
-21 32 -14 90 37 290 69 277 93 429 105 672 10 175 12 183 58 193 21 4 67 28
102 52 83 57 138 69 225 51 229 -50 351 34 456 315 26 69 28 86 27 205 0 107
-5 148 -27 230 -30 113 -68 183 -111 204 -17 8 -71 46 -121 85 -50 39 -112 85
-136 102 -62 43 -73 89 -73 299 1 182 12 277 62 525 30 152 33 186 27 258 l-6
82 71 75 c39 41 73 86 76 100 3 14 7 36 10 50 3 14 12 25 19 25 8 0 41 18 74
40 33 22 65 40 71 40 18 0 98 78 122 119 42 70 70 77 122 31z m3522 -7 c4 -16
15 -36 25 -45 22 -21 37 -85 24 -105 -17 -27 -29 -13 -29 35 0 32 -4 46 -12
45 -7 -2 -19 -4 -25 -5 -16 -4 -22 34 -13 79 7 38 19 36 30 -4z m-1577 0 c-4
-22 -48 -31 -48 -10 0 19 10 27 32 27 13 0 18 -6 16 -17z m445 -28 c0 -6 -8
-12 -19 -13 -25 -5 -62 -40 -81 -75 -8 -16 -17 -26 -20 -24 -10 11 41 88 72
107 31 20 46 22 48 5z m-3883 -19 c0 -13 -20 -47 -45 -78 -25 -30 -45 -60 -45
-67 0 -18 -18 -13 -30 9 -20 38 -8 73 31 92 20 9 43 28 53 42 21 32 36 33 36
2z m4060 -106 c-6 -11 -8 -35 -5 -54 8 -41 -11 -59 -32 -31 -14 20 -10 46 13
83 18 28 39 30 24 2z m-4370 -36 c0 -33 12 -45 25 -24 13 21 21 8 33 -48 16
-79 16 -82 -15 -82 -36 0 -49 9 -62 43 -12 31 -15 140 -5 150 13 13 24 -5 24
-39z m3575 -103 c-10 -53 -22 -107 -27 -121 l-10 -25 -19 23 c-17 22 -17 26
-4 45 8 12 15 35 15 52 0 17 6 39 14 50 8 11 20 40 27 65 21 70 23 20 4 -89z
m495 114 c0 -4 -7 -19 -15 -35 -16 -31 -12 -55 11 -64 15 -6 19 -43 5 -64 -9
-15 -41 59 -41 95 0 30 17 73 30 73 5 0 10 -2 10 -5z m1547 -52 c-9 -85 -36
-168 -50 -154 -22 22 22 211 50 211 3 0 3 -26 0 -57z m-1366 -40 c-8 -69 -13
-78 -35 -70 -11 5 -13 13 -6 34 12 42 41 106 45 102 2 -2 0 -32 -4 -66z
m-4102 -46 l-2 -62 -8 45 c-11 64 -11 92 1 85 6 -3 9 -34 9 -68z m5231 63 c0
-5 18 -22 40 -36 33 -22 40 -32 40 -58 0 -64 -32 -73 -48 -13 -6 23 -14 31
-28 30 -24 -2 -34 14 -34 55 0 22 5 32 15 32 8 0 15 -4 15 -10z m146 -137
c-22 -147 -26 -159 -38 -108 -12 49 -4 206 12 236 11 19 13 20 28 6 14 -15 14
-27 -2 -134z m2825 -66 c-15 -39 -31 -33 -31 11 0 43 19 152 28 167 11 17 13
-150 3 -178z m-4217 94 c-16 -41 -40 -48 -28 -8 7 24 35 60 41 53 2 -2 -4 -22
-13 -45z m-144 -47 c0 -45 -16 -74 -40 -74 -24 0 -26 13 -5 30 8 7 15 27 15
45 0 17 3 35 6 38 13 13 24 -5 24 -39z m-90 7 c5 -11 10 -33 10 -50 0 -29 -3
-31 -35 -31 -38 0 -47 18 -20 40 8 7 15 23 15 36 0 29 15 31 30 5z m-3894 -16
c25 -39 34 -90 19 -119 -11 -20 -11 -28 0 -43 13 -17 14 -17 21 2 4 11 14 26
20 33 9 8 11 29 7 64 -10 82 17 56 58 -58 40 -111 52 -139 92 -206 34 -57 35
-111 1 -116 -19 -3 -21 2 -20 34 1 48 -24 67 -54 39 -15 -14 -21 -29 -19 -55
4 -55 -6 -63 -51 -40 -58 29 -116 119 -89 136 5 3 9 -1 9 -9 0 -16 67 -97 81
-97 18 0 9 49 -11 60 -26 14 -25 35 1 61 14 14 18 27 13 42 -12 40 -34 67 -62
73 -15 4 -37 16 -49 26 l-22 20 -3 -33 c-3 -38 -23 -50 -33 -20 -3 11 -24 44
-46 73 -44 59 -48 78 -18 78 32 0 56 -17 63 -45 12 -48 26 -25 26 43 0 38 3
72 7 75 14 15 43 6 59 -18z m8522 -113 c-16 -33 -29 -47 -43 -47 -16 0 -20 6
-19 36 1 20 10 49 21 65 11 16 29 43 39 59 l19 30 3 -48 c2 -36 -3 -62 -20
-95z m-4912 53 c-4 -23 -14 -51 -22 -61 -14 -18 -15 -16 -10 21 5 52 30 122
34 99 2 -9 1 -35 -2 -59z m564 -4 c0 -16 -9 -39 -21 -52 -18 -21 -20 -21 -13
-4 4 11 12 35 18 53 13 39 16 40 16 3z m-855 -46 c0 -32 -21 -46 -27 -18 -6
27 3 54 16 50 6 -2 11 -16 11 -32z m555 -42 c0 -17 -27 -53 -41 -53 -9 0 0 41
14 58 13 17 27 15 27 -5z m-4036 -140 c29 -58 47 -121 37 -128 -14 -8 -45 35
-47 64 -1 16 -7 38 -13 49 -11 21 -15 62 -6 62 2 0 15 -21 29 -47z m5391 -23
c19 -37 33 -130 17 -115 -11 10 -52 119 -52 137 0 19 21 6 35 -22z m-381 -62
c-8 -52 -24 -74 -24 -32 0 39 10 74 21 74 5 0 6 -19 3 -42z m-4516 9 c4 -22
-43 -46 -60 -29 -9 9 -7 17 7 32 22 24 48 23 53 -3z m5261 -59 c-1 -13 -4 -36
-8 -53 l-7 -30 -8 32 c-8 35 0 73 15 73 5 0 8 -10 8 -22z m-4959 -19 c0 -16
-16 -68 -35 -114 -29 -70 -37 -107 -50 -228 -8 -80 -17 -152 -21 -160 -7 -19
-35 -30 -46 -19 -12 12 56 326 82 384 11 24 20 56 20 71 0 35 25 97 39 97 6 0
11 -14 11 -31z m-643 -6 c4 -10 17 -33 30 -52 18 -26 20 -37 12 -48 -14 -16
-39 0 -39 26 0 9 -9 31 -20 49 -24 39 -24 42 -5 42 9 0 19 -8 22 -17z m-70
-35 c25 -24 29 -38 11 -38 -14 0 -58 40 -58 52 0 15 23 8 47 -14z m2512 -43
c56 -60 75 -95 52 -95 -12 0 -90 89 -114 130 -29 49 -4 35 62 -35z m2362 -48
c-47 -136 -191 -347 -237 -347 -27 0 -14 23 57 98 59 61 81 95 125 188 55 119
86 153 55 61z m-5391 -261 c0 -68 -4 -97 -14 -105 -19 -16 -30 3 -16 28 5 11
10 54 10 95 0 44 4 76 10 76 6 0 10 -38 10 -94z m335 37 c3 -32 11 -75 17 -96
9 -29 9 -40 -1 -50 -19 -19 -45 5 -55 52 -9 44 8 151 24 151 5 0 11 -26 15
-57z m210 -155 c-11 -244 -25 -299 -19 -78 4 176 10 240 22 240 3 0 2 -73 -3
-162z m-85 -115 c-6 -83 -15 -164 -20 -180 -12 -42 -12 204 0 307 25 200 38
112 20 -127z m250 155 c0 -6 -8 -20 -17 -30 -14 -16 -15 -22 -4 -40 16 -25 9
-33 -19 -18 -21 11 -21 18 1 78 9 23 39 31 39 10z m6167 -53 c-35 -31 -39 -31
-54 0 -11 25 -11 25 35 25 l47 -1 -28 -24z m307 13 c-21 -37 -79 -100 -104
-113 -31 -16 -70 -20 -70 -7 1 8 161 130 173 131 5 1 5 -5 1 -11z m-6864 -87
c0 -54 -7 -81 -21 -81 -10 0 -12 113 -2 123 16 17 23 4 23 -42z m-64 -3 c-9
-43 -26 -60 -26 -26 0 34 9 58 22 58 6 0 8 -13 4 -32z m-226 -90 c0 -64 -3
-88 -10 -78 -16 24 -10 170 6 170 2 0 4 -42 4 -92z m1072 -80 c-9 -35 -38 -50
-48 -24 -10 26 5 82 29 112 l22 29 3 -42 c2 -22 -1 -56 -6 -75z m5177 26 c57
-17 64 -34 31 -77 -38 -48 -48 -92 -60 -250 -6 -87 -15 -180 -19 -208 -4 -27
-5 -49 0 -49 13 0 29 61 40 154 15 131 25 164 51 168 38 5 33 28 -6 28 -30 0
-36 4 -36 21 0 12 14 37 30 56 17 18 30 42 30 53 0 36 12 50 41 50 30 0 179
-58 179 -69 0 -3 -18 -63 -39 -133 -41 -136 -62 -178 -88 -178 -9 0 -30 -12
-45 -27 l-28 -27 0 27 c0 14 -4 29 -10 32 -5 3 -10 -2 -10 -13 0 -30 -47 -161
-76 -209 -14 -24 -36 -49 -50 -55 -13 -6 -26 -18 -29 -27 -3 -9 -32 -45 -65
-81 l-59 -65 -1 96 c0 102 -7 159 -20 159 -4 0 -16 -32 -25 -70 -15 -62 -50
-128 -62 -117 -2 3 5 49 16 103 11 55 25 155 31 223 8 101 14 127 28 137 22
15 37 77 57 228 17 134 29 151 96 142 26 -4 70 -13 98 -22z m-6075 -29 c4 -15
2 -63 -4 -108 -7 -45 -9 -100 -6 -122 7 -49 -9 -83 -18 -39 -21 98 -34 293
-20 307 12 12 42 -12 48 -38z m7578 -4 c21 -7 50 -23 65 -37 l28 -25 -50 6
c-286 31 -547 5 -589 -61 -16 -24 -46 -33 -46 -14 0 18 37 84 57 102 39 35
127 47 318 44 102 -2 196 -8 217 -15z m-592 -51 c0 -30 -70 -95 -123 -115 -41
-15 -51 -16 -73 -5 -21 12 -29 11 -59 -3 l-35 -17 6 28 c11 47 29 57 151 88
15 5 23 0 28 -16 8 -25 30 -12 39 24 5 22 44 48 59 39 4 -2 7 -13 7 -23z
m-6810 -117 c4 -54 4 -117 1 -138 -6 -33 -8 -25 -13 51 -4 51 -12 110 -19 132
-13 44 -6 83 12 65 6 -6 14 -55 19 -110z m6235 8 c-11 -56 -33 -103 -46 -96
-14 9 -3 92 17 123 21 32 37 17 29 -27z m243 34 c2 -2 1 -16 -2 -31 -6 -22
-11 -25 -32 -20 -19 5 -35 0 -59 -19 -38 -28 -60 -33 -51 -10 3 10 -1 15 -13
15 -10 0 -24 -7 -31 -15 -7 -8 -19 -15 -27 -15 -19 0 -11 51 13 88 16 24 19
25 107 18 50 -3 92 -8 95 -11z m-6340 -152 c-1 -121 -2 -136 -8 -83 -12 100
-11 230 0 230 6 0 9 -55 8 -147z m7916 85 c38 -34 56 -120 55 -258 -1 -117
-14 -190 -37 -198 -10 -3 -12 29 -11 145 1 136 -1 154 -25 222 -39 110 -34
135 18 89z m-105 -32 c20 -23 50 -166 64 -305 11 -104 19 -137 32 -147 9 -7
14 -17 10 -23 -9 -15 -65 -14 -70 2 -3 6 -13 71 -24 142 -11 72 -29 159 -40
195 -24 74 -26 121 -9 138 15 15 23 15 37 -2z m-234 -53 c53 -65 65 -87 65
-120 0 -98 -76 -8 -105 125 -9 42 3 41 40 -5z m132 -2 c24 -35 52 -121 74
-226 18 -85 18 -317 0 -338 -22 -27 -31 -10 -31 59 0 70 -36 265 -75 412 -14
51 -25 102 -25 113 0 31 30 20 57 -20z m-2267 -127 c0 -145 -20 -264 -60 -348
-24 -52 -28 -57 -29 -33 -1 16 8 72 19 125 10 53 24 155 30 225 5 71 13 140
16 154 13 51 24 -3 24 -123z m1706 114 c9 -18 27 -46 40 -61 l23 -28 7 28 c11
44 13 45 50 22 40 -24 60 -20 74 16 7 18 17 25 35 25 14 0 36 7 50 16 18 12
28 13 44 4 44 -23 103 -181 147 -398 23 -110 25 -143 21 -247 -7 -130 -28
-225 -52 -225 -13 0 -15 25 -16 148 0 81 -6 176 -13 212 -12 63 -13 58 -19
-160 -5 -168 -11 -247 -26 -310 -26 -116 -63 -223 -79 -228 -14 -4 -12 18 14
160 18 102 30 313 17 321 -5 3 -14 -44 -21 -111 -19 -174 -51 -300 -73 -286
-8 5 -10 48 -6 148 3 78 2 175 -2 216 l-7 75 -8 -60 c-10 -86 -15 -105 -26
-105 -13 0 -25 52 -59 257 -16 99 -48 248 -70 330 -46 169 -71 273 -65 273 2
0 11 -15 20 -32z m-6555 -78 c5 -45 14 -90 19 -100 15 -28 77 -433 84 -545 2
-33 -17 -31 -40 3 -43 64 -104 444 -104 653 0 125 27 118 41 -11z m373 69 c3
-17 6 -50 6 -73 -1 -57 -16 -26 -23 47 -6 60 6 79 17 26z m5508 -125 c5 -18 3
-40 -4 -58 -10 -26 -9 -31 13 -49 15 -13 20 -21 12 -24 -7 -3 -39 -22 -70 -44
-69 -46 -120 -66 -135 -51 -15 15 -3 29 31 35 30 6 101 61 101 78 0 5 -18 0
-40 -11 -30 -15 -40 -17 -40 -7 0 8 18 39 40 70 22 30 40 59 40 64 0 14 23 34
34 30 5 -2 14 -17 18 -33z m637 -38 c6 -25 16 -48 21 -51 21 -13 61 -107 80
-187 27 -112 54 -406 41 -441 -20 -52 -50 -20 -52 55 -1 24 -4 54 -8 68 -7 23
-8 21 -14 -15 -3 -22 -9 -85 -12 -140 -10 -166 -26 -316 -41 -385 -17 -77 -70
-244 -89 -280 -15 -30 -53 -65 -61 -58 -3 3 0 32 7 64 12 62 3 124 -18 131
-18 6 -62 -89 -79 -170 -15 -67 -77 -217 -91 -217 -3 0 -3 18 1 41 6 35 4 41
-14 46 -26 7 -26 19 0 26 11 3 20 13 20 22 0 14 -7 16 -35 13 -41 -5 -42 -2
-13 22 18 14 23 30 26 89 2 39 8 71 13 71 5 0 9 9 9 21 0 16 -4 19 -20 14 -26
-8 -26 12 -3 160 l18 110 7 -90 c4 -50 11 -101 16 -115 9 -24 9 -24 16 -3 4
14 17 23 34 25 47 5 53 36 66 336 11 267 12 275 34 290 28 18 28 45 2 164 -25
109 -23 143 5 143 58 0 125 -319 105 -501 -11 -99 -40 -82 -50 28 -3 40 -9 66
-13 58 -10 -25 -26 -178 -32 -300 l-5 -115 16 55 c8 30 20 72 25 93 5 20 15
37 21 37 8 0 9 -41 5 -142 -5 -125 -4 -140 8 -118 27 51 47 194 52 372 7 225
-6 336 -58 491 -21 64 -39 128 -39 142 0 65 60 29 91 -55 12 -33 25 -60 29
-60 10 0 3 35 -15 75 -26 58 -45 225 -26 225 5 0 14 -20 20 -44z m-758 -10
c-6 -7 -41 -27 -78 -44 -133 -60 -187 -51 -60 10 89 44 96 46 126 47 19 1 21
-2 12 -13z m1342 -103 c19 -43 21 -66 22 -213 0 -101 -5 -191 -14 -232 -26
-133 -36 -84 -50 257 -5 121 -7 223 -5 227 11 18 26 5 47 -39z m-1423 -12 c0
-17 -43 -41 -72 -41 -41 0 -34 16 15 33 52 19 57 19 57 8z m215 -40 c3 -5 -8
-19 -25 -31 -40 -28 -39 -50 1 -50 30 0 31 -1 25 -37 -3 -21 -8 -59 -12 -86
-8 -59 -33 -92 -82 -108 -20 -7 -53 -20 -72 -30 -39 -19 -167 -45 -177 -35
-11 10 4 17 49 23 70 9 228 100 228 132 0 5 -7 11 -15 15 -8 3 -15 12 -15 21
0 21 -33 19 -80 -5 -40 -20 -90 -27 -90 -12 0 5 17 15 39 22 21 7 52 23 67 36
27 22 28 23 7 24 -12 0 -32 -4 -45 -9 -13 -4 -40 -11 -60 -15 -68 -12 -42 13
65 63 56 26 113 57 127 69 26 23 55 28 65 13z m-326 -77 c-18 -17 -100 -33
-84 -16 12 13 88 41 94 36 3 -3 -2 -11 -10 -20z m-87 -110 c-33 -23 -182 -76
-182 -64 0 19 135 79 180 79 l24 1 -22 -16z m233 -94 c-3 -5 -20 -10 -37 -10
-16 0 -60 -9 -96 -19 -85 -25 -156 -35 -147 -22 6 11 51 25 150 46 74 16 139
19 130 5z m-5298 -26 c2 -6 -10 -14 -27 -18 -40 -8 -131 -94 -161 -153 -13
-25 -28 -45 -34 -44 -5 0 -11 25 -13 55 -3 52 -2 54 43 94 25 22 65 50 88 61
43 22 98 24 104 5z m133 -75 c0 -23 -28 -25 -36 -4 -4 8 -3 22 0 31 5 13 9 14
21 4 8 -7 15 -21 15 -31z m5304 20 c-19 -31 -225 -99 -300 -99 -47 0 -15 19
112 65 115 42 203 58 188 34z m-564 -34 c0 -5 -75 -45 -85 -45 -15 0 -1 21 23
34 26 15 62 21 62 11z m-5265 -178 c8 -80 -10 -260 -35 -340 -11 -34 -20 -84
-20 -112 1 -46 2 -49 15 -30 21 26 34 76 45 167 11 96 25 148 45 173 15 19 16
14 11 -60 -3 -44 -21 -163 -41 -265 -20 -102 -39 -221 -42 -265 -6 -80 -18
-105 -65 -131 -9 -5 -26 -31 -37 -59 l-20 -50 0 36 c-1 20 10 70 23 110 25 78
41 183 27 175 -8 -5 -36 -92 -59 -181 -25 -97 -70 -186 -73 -145 -3 36 4 80
22 145 22 81 21 75 11 75 -4 0 -20 -29 -36 -65 -36 -83 -74 -125 -113 -125
-38 0 -75 36 -53 50 20 13 23 12 46 -5 10 -8 24 -15 31 -15 18 0 31 60 21 95
-6 23 -3 36 18 66 13 20 40 81 60 135 58 166 65 184 75 184 11 0 3 -77 -17
-170 -24 -103 -25 -110 -19 -110 3 0 17 12 30 28 18 20 24 39 25 72 0 25 9 73
20 108 27 85 37 157 50 347 5 88 13 182 16 209 6 44 8 48 20 32 7 -10 16 -46
19 -79z m5686 78 c-1 -5 -27 -11 -58 -13 -63 -3 -66 7 -6 19 47 9 64 7 64 -6z
m112 -31 c3 -4 -1 -17 -10 -30 -12 -20 -13 -29 -4 -52 15 -36 2 -75 -34 -98
-24 -15 -24 -17 -8 -30 29 -21 6 -31 -107 -48 -125 -20 -173 -34 -164 -48 9
-14 182 -2 235 16 57 20 46 -3 -17 -33 -42 -21 -67 -25 -174 -28 -128 -4 -158
2 -147 31 11 28 69 55 145 68 41 7 81 18 90 24 15 11 11 14 -28 20 -38 7 -41
9 -20 14 18 4 26 14 28 33 3 24 22 40 22 18 0 -33 89 -11 109 27 13 24 -4 55
-18 33 -5 -8 -7 -21 -3 -30 3 -11 -4 -8 -21 8 -25 23 -31 24 -124 17 l-98 -6
35 19 c19 10 54 22 78 26 24 4 75 17 115 30 74 24 109 30 120 19z m481 -86
c12 -107 3 -268 -15 -268 -5 0 -9 72 -9 160 0 158 11 210 24 108z m-1394 34
c0 -14 -98 -42 -144 -42 -36 1 -39 2 -21 12 42 25 165 47 165 30z m-2001 -235
c-13 -105 -25 -183 -27 -172 -5 38 14 381 23 395 7 11 11 9 18 -8 7 -16 3 -80
-14 -215z m1451 181 c-51 -24 -149 -38 -116 -17 25 16 104 37 136 37 20 0 16
-4 -20 -20z m-1642 -54 l-12 -29 -4 32 c-4 35 20 76 26 44 2 -10 -3 -31 -10
-47z m2497 46 c-10 -15 -85 -52 -85 -41 0 14 52 50 73 51 10 0 15 -5 12 -10z
m1439 -52 c-13 -121 -50 -179 -48 -75 2 71 21 137 40 137 12 0 14 -10 8 -62z
m80 17 c-8 -21 -14 -69 -14 -122 0 -79 -3 -93 -30 -140 -28 -49 -47 -70 -55
-61 -7 7 27 161 41 190 8 15 14 42 14 60 0 18 9 52 20 76 23 51 46 49 24 -3z
m-1634 -23 c0 -17 -25 -32 -54 -32 l-31 1 24 19 c23 20 61 27 61 12z m-612
-37 c-15 -8 -53 -21 -85 -29 -32 -8 -75 -21 -97 -31 -21 -9 -48 -15 -59 -13
-32 4 106 65 173 77 86 14 100 13 68 -4z m-1638 -54 c0 -30 -24 -59 -34 -43
-7 13 13 72 25 72 5 0 9 -13 9 -29z m1700 -6 c-7 -8 -27 -15 -44 -15 l-31 1
25 14 c14 8 33 14 44 15 15 0 16 -3 6 -15z m-440 -10 c0 -11 11 -15 38 -15 43
0 62 -14 62 -44 -1 -20 -1 -20 -14 -3 -11 14 -26 18 -70 16 -31 -1 -59 0 -62
3 -7 8 25 58 37 58 5 0 9 -7 9 -15z m1170 -52 c-1 -5 -7 -19 -15 -33 -8 -14
-14 -35 -15 -46 0 -12 -7 -27 -15 -34 -24 -20 -19 35 7 81 20 35 39 51 38 32z
m460 -42 c0 -31 -26 -49 -88 -61 -31 -6 -69 -20 -83 -30 -27 -19 -110 -43
-189 -55 -62 -9 -80 -15 -80 -25 0 -22 54 -19 192 8 92 19 161 38 184 52 33
21 37 21 52 7 9 -9 14 -18 11 -20 -13 -9 -117 -47 -130 -47 -8 0 -49 -12 -90
-27 -62 -22 -90 -26 -175 -26 -106 0 -162 14 -110 27 18 4 32 18 42 41 14 34
16 35 69 35 31 0 72 7 92 15 19 8 47 15 62 16 23 0 24 1 6 9 -11 5 -31 9 -45
9 -14 1 -32 6 -40 11 -25 16 3 27 104 39 50 7 114 18 141 26 68 18 75 18 75
-4z m-1750 -30 c0 -18 1 -18 37 0 21 10 51 19 67 19 29 0 28 -1 -23 -34 -29
-19 -64 -37 -79 -41 -14 -3 -38 -15 -54 -26 -33 -24 -40 -4 -8 24 11 9 20 27
20 40 0 27 7 37 27 37 7 0 13 -9 13 -19z m634 10 c3 -4 -25 -11 -63 -15 -37
-3 -83 -9 -102 -13 -30 -6 -33 -5 -21 10 8 9 23 18 35 20 42 8 146 7 151 -2z
m1976 -36 c0 -66 -47 -142 -71 -118 -8 8 -5 19 9 40 12 15 26 47 32 71 13 51
30 55 30 7z m-2364 7 c6 -4 13 -15 17 -24 8 -22 21 -23 37 -3 13 16 70 21 70
6 0 -5 -40 -22 -90 -38 -87 -29 -103 -30 -78 -5 38 38 -50 17 -97 -24 l-30
-25 33 5 c51 9 36 -14 -34 -51 -62 -33 -104 -73 -104 -99 0 -14 -2 -14 -16 0
-19 20 -39 11 -99 -45 -48 -45 -70 -51 -59 -16 4 12 10 37 13 56 5 29 12 36
38 43 20 5 45 25 65 50 40 50 137 115 186 124 19 4 51 17 70 30 36 25 59 29
78 16z m-4145 -134 l-21 -43 5 57 c3 31 11 69 17 85 l12 28 4 -42 c2 -28 -4
-57 -17 -85z m2721 17 c-3 -70 0 -105 7 -105 6 0 13 11 17 25 9 36 37 33 30
-2 -3 -16 -8 -45 -12 -65 -5 -31 -10 -38 -30 -38 -41 0 -61 -70 -25 -89 12 -7
21 -27 25 -55 4 -25 11 -48 17 -51 14 -10 37 53 45 125 9 84 20 107 29 58 8
-41 -10 -240 -24 -266 -5 -10 -26 -23 -48 -31 -21 -7 -55 -24 -75 -37 l-38
-24 0 117 c0 76 7 150 19 208 10 50 22 124 25 165 8 85 25 170 34 170 4 0 5
-47 4 -105z m348 62 c0 -44 -24 -92 -41 -82 -5 4 -6 18 -3 33 21 97 44 122 44
49z m2950 -142 c-32 -156 -72 -219 -83 -129 -4 35 1 59 18 98 12 28 30 76 40
106 42 130 58 81 25 -75z m-2736 127 c8 -13 -22 -50 -54 -67 -24 -13 -29 -13
-40 0 -17 21 -5 45 23 45 14 0 30 7 37 15 14 17 26 19 34 7z m-454 -152 c-6
-11 -15 -18 -21 -15 -13 9 -11 39 6 71 8 16 16 40 17 54 1 14 3 -1 5 -32 2
-32 -1 -67 -7 -78z m2945 58 c3 -29 13 -88 21 -132 11 -55 13 -81 5 -89 -25
-25 -69 166 -55 240 9 49 21 40 29 -19z m799 10 c-12 -40 -46 -108 -57 -115
-19 -11 -38 30 -35 77 2 34 7 46 21 48 14 3 17 -2 15 -25 -2 -20 1 -28 12 -28
10 0 16 12 18 33 2 20 9 32 18 32 11 0 13 -6 8 -22z m-3634 2 c0 -6 -8 -25
-17 -43 -13 -25 -17 -62 -17 -169 -1 -138 6 -166 31 -117 8 16 24 26 45 29 42
6 46 35 5 35 -46 -1 -31 35 27 65 26 14 54 37 61 50 l13 25 11 -27 c26 -68
-56 -199 -154 -244 -48 -23 -95 -31 -107 -18 -4 3 0 20 7 37 7 18 20 95 29
173 19 164 31 214 51 214 8 0 15 -5 15 -10z m2573 -37 c4 -3 -1 -12 -11 -19
-16 -13 -15 -14 6 -20 32 -9 26 -48 -8 -52 -14 -2 -37 -17 -52 -33 -21 -23
-35 -29 -68 -29 -23 0 -54 -7 -70 -15 -16 -8 -53 -14 -87 -14 -33 1 -75 -6
-97 -15 -47 -19 -110 -22 -104 -3 3 6 17 14 33 15 16 2 38 10 49 18 11 8 33
14 48 14 16 0 28 5 28 10 0 6 -4 10 -10 10 -21 0 -9 27 18 40 l27 14 -25 4
c-13 2 -42 -1 -63 -8 -42 -12 -53 -9 -44 13 3 9 39 21 94 31 129 24 174 20
135 -11 -15 -13 -14 -14 11 -8 15 3 48 8 73 12 l46 6 -29 23 -28 23 61 1 c33
0 64 -3 67 -7z m-473 -13 c0 -13 -34 -30 -59 -30 -26 0 -27 15 -3 29 22 13 62
14 62 1z m-729 -82 c-6 -17 -9 -33 -7 -35 8 -8 36 10 41 28 4 10 18 22 33 26
44 13 343 8 375 -5 38 -16 33 -46 -8 -50 -54 -5 -60 -10 -40 -32 10 -11 24
-20 32 -20 7 0 17 -10 22 -23 5 -13 27 -31 50 -41 22 -11 43 -27 46 -37 7 -23
66 -69 87 -69 8 0 27 14 44 31 62 65 136 94 281 109 54 6 113 13 131 16 43 8
43 -13 -1 -31 -17 -7 -85 -23 -149 -34 -210 -39 -223 -45 -306 -149 -23 -30
-44 -44 -75 -52 -23 -6 -64 -18 -92 -26 -27 -9 -77 -21 -110 -27 -50 -10 -60
-16 -65 -36 -10 -42 -34 -48 -70 -18 -37 32 -67 24 -72 -20 -4 -34 -25 -42
-30 -11 -2 15 -10 23 -23 23 -16 0 -20 -7 -20 -35 0 -27 5 -36 20 -38 11 -2
24 -7 28 -12 10 -9 -14 -60 -38 -80 -15 -12 -16 -11 -10 13 10 37 -11 35 -30
-4 -26 -49 -155 -100 -155 -61 0 4 16 23 35 42 33 32 35 33 35 11 0 -36 34
-23 38 15 2 25 -2 33 -23 42 -23 11 -26 17 -20 42 4 17 4 30 1 30 -3 0 -22
-26 -43 -57 -41 -65 -55 -55 -33 24 21 73 73 121 82 76 3 -14 8 -11 21 13 32
61 42 154 16 154 -5 0 -9 -11 -9 -24 0 -33 -35 -75 -50 -60 -8 9 -7 21 4 49
32 75 11 104 -24 35 -19 -38 -30 -47 -42 -35 -7 7 27 104 41 118 6 6 11 23 11
39 0 23 6 29 33 36 41 11 67 56 44 79 -13 13 -18 13 -41 -2 -23 -16 -26 -16
-26 -1 0 8 11 39 24 68 14 29 28 62 32 73 13 34 17 -31 5 -67z m-141 48 c0
-14 -5 -28 -11 -32 -6 -3 -19 -26 -29 -50 -14 -33 -26 -45 -47 -49 -52 -12
-72 -24 -79 -49 -8 -34 2 -47 32 -40 19 5 24 2 24 -13 0 -30 -35 -56 -77 -57
-27 -1 -38 -7 -44 -22 -10 -27 -56 -64 -80 -64 -25 0 -59 56 -59 97 0 39 15
50 39 29 10 -9 21 -16 26 -16 11 0 65 51 65 61 0 4 -19 9 -42 11 -50 4 -57 17
-25 49 13 13 32 39 41 57 16 31 56 46 56 21 0 -6 7 -8 16 -5 9 3 27 9 41 12
22 6 24 4 19 -14 -4 -11 -3 -23 2 -26 11 -7 41 25 76 82 29 47 56 56 56 18z
m-965 -59 c-4 -31 -13 -64 -21 -74 -12 -16 -13 -14 -14 20 0 21 5 58 11 83 16
63 33 42 24 -29z m1015 -13 c-8 -53 -16 -74 -36 -91 -45 -41 -58 -28 -19 19
19 22 25 41 25 75 0 32 5 50 17 59 10 7 19 11 21 9 1 -1 -2 -33 -8 -71z m680
-19 c0 -10 -61 -35 -87 -35 -34 0 -20 15 27 28 40 12 60 14 60 7z m1558 -12
c2 -9 -7 -13 -27 -13 -31 0 -42 14 -18 23 19 8 40 3 45 -10z m-878 -71 c0 -4
-5 -13 -11 -19 -8 -8 -7 -16 2 -31 16 -26 2 -44 -55 -75 l-41 -22 50 -3 c78
-5 98 -37 50 -82 -33 -31 -32 -40 5 -40 35 0 38 -12 10 -47 -21 -27 -26 -58
-11 -68 6 -3 15 4 22 16 9 17 13 19 20 8 5 -8 9 -17 9 -21 0 -18 -66 -80 -111
-104 -51 -28 -66 -50 -26 -39 12 4 59 23 104 42 45 19 87 32 93 28 21 -13 9
-44 -35 -93 -52 -58 -122 -105 -189 -128 -25 -9 -46 -20 -46 -24 0 -20 101 10
258 77 21 9 13 -13 -23 -60 -56 -73 -45 -107 12 -40 46 54 43 20 -7 -87 -47
-101 -50 -120 -15 -120 14 0 25 -4 25 -8 0 -31 -146 -100 -350 -166 -80 -26
-156 -53 -170 -59 l-25 -11 27 -4 c42 -5 189 34 307 83 113 46 151 54 151 32
0 -19 -29 -57 -45 -57 -7 0 -49 -15 -92 -33 -95 -41 -259 -98 -413 -142 -109
-32 -112 -34 -65 -34 144 -1 434 97 598 202 32 20 64 37 72 37 27 0 16 -19
-23 -39 -21 -11 -58 -36 -82 -56 -64 -53 -92 -65 -347 -148 -128 -42 -241 -81
-250 -86 -56 -32 103 2 321 69 101 31 160 38 171 20 4 -6 -4 -27 -16 -46 -12
-20 -25 -50 -28 -68 -5 -27 -16 -36 -91 -73 -47 -24 -137 -59 -200 -79 -63
-20 -140 -45 -170 -56 -30 -11 -100 -32 -155 -47 -109 -29 -149 -47 -140 -62
4 -5 20 -9 36 -9 75 0 -29 -52 -259 -131 -81 -27 -194 -63 -252 -80 -123 -36
-222 -70 -217 -76 10 -9 217 44 378 98 97 32 201 64 230 70 30 6 95 28 144 49
50 21 162 65 251 99 88 33 196 77 240 97 240 110 296 93 64 -20 -69 -34 -125
-65 -125 -71 0 -5 12 -11 28 -13 46 -6 31 -30 -42 -67 -38 -19 -73 -39 -76
-45 -15 -25 8 -21 81 14 155 73 124 22 -41 -67 -54 -30 -101 -59 -103 -66 -5
-14 40 -15 86 -2 20 6 32 6 32 0 0 -13 -118 -88 -210 -134 -121 -60 -211 -116
-246 -151 -18 -18 -59 -46 -91 -63 -32 -17 -71 -42 -88 -56 l-30 -24 28 -1
c110 -1 -185 -140 -465 -219 -57 -15 -139 -38 -183 -50 -99 -27 -273 -101
-339 -144 -55 -35 -157 -74 -226 -86 -46 -8 -160 -55 -170 -70 -18 -29 -425
-241 -620 -323 -52 -22 -133 -57 -180 -78 -47 -21 -110 -43 -140 -49 -195 -38
-515 -60 -985 -67 -370 -6 -396 -5 -505 15 -63 12 -191 26 -285 31 -93 6 -208
17 -255 25 -47 8 -118 19 -158 25 -90 13 -124 29 -150 74 -14 23 -40 45 -79
65 -204 103 -227 328 -66 639 122 234 131 255 149 321 26 100 31 321 8 441 -9
52 -19 121 -22 153 -7 107 33 119 234 66 76 -19 162 -34 239 -39 66 -5 133
-13 148 -19 34 -13 207 -14 261 -1 35 8 42 6 66 -18 32 -33 65 -116 93 -237
17 -75 20 -129 22 -318 2 -218 8 -276 21 -209 9 46 28 58 49 30 l16 -23 19 23
c10 12 23 46 28 75 17 90 41 209 56 277 8 36 19 121 23 189 12 180 -28 165
446 171 367 5 383 6 417 26 19 12 52 24 73 27 21 3 77 24 126 46 48 23 111 45
141 51 29 6 58 15 65 20 7 5 35 14 64 20 52 10 102 31 326 140 66 33 142 63
169 68 44 9 49 8 54 -10 3 -13 10 -17 21 -12 35 14 198 54 224 54 46 0 30 -17
-40 -41 -54 -19 -71 -30 -82 -54 -8 -16 -21 -34 -29 -39 -8 -4 -28 -22 -46
-38 -23 -22 -26 -28 -11 -23 39 13 75 17 90 11 14 -5 14 -9 0 -36 -18 -35 -43
-50 -84 -50 -37 0 -41 -17 -5 -22 25 -3 25 -4 -36 -88 -100 -139 -144 -249
-104 -264 21 -8 53 29 104 124 79 147 124 182 251 195 114 13 200 34 434 110
257 83 420 132 543 165 45 12 82 25 82 29 0 15 -132 -11 -286 -54 -149 -43
-224 -55 -224 -37 0 8 16 16 154 76 32 15 57 29 54 31 -5 5 -71 -7 -123 -21
l-20 -6 20 20 c28 29 257 120 348 139 21 4 38 13 38 18 0 17 -48 17 -81 0 -47
-25 -56 -7 -11 25 43 32 46 54 9 87 -19 17 -21 17 -44 -12 l-24 -30 0 26 c0
34 36 79 62 79 39 0 153 40 208 72 l55 33 -37 3 c-21 2 -38 7 -38 12 0 8 72
40 91 40 5 0 29 9 51 20 23 11 61 20 85 20 24 0 74 11 111 23 37 13 85 27 107
31 42 8 78 33 69 47 -11 18 -254 5 -254 -12 0 -5 23 -9 50 -9 28 0 50 -4 50
-10 0 -10 -3 -11 -126 -40 -192 -45 -334 -101 -334 -133 0 -7 -19 -13 -50 -14
-28 -2 -50 -1 -50 2 0 3 15 28 34 55 19 28 38 65 41 82 16 74 50 79 40 7 -9
-61 9 -65 37 -8 29 58 19 99 -25 99 -12 0 -17 6 -15 18 4 21 72 56 149 77 71
19 109 46 91 67 -6 8 -9 18 -5 21 12 13 62 7 71 -8 7 -13 14 -14 36 -5 15 5
44 10 64 10 42 0 56 7 65 34 6 15 10 16 23 5 12 -10 20 -10 34 -1 15 9 19 7
23 -10 4 -14 11 -19 23 -14 9 3 69 15 133 27 368 64 477 94 457 127 -4 7 -24
5 -64 -9 -31 -11 -116 -31 -188 -44 -72 -13 -150 -29 -175 -36 -106 -27 -138
-22 -124 20 4 15 20 19 93 24 109 7 310 49 422 88 47 16 93 32 103 36 15 5 17
2 11 -21 -9 -39 14 -33 32 9 7 19 14 37 14 40 0 13 -65 2 -167 -30 -138 -42
-255 -67 -266 -56 -14 14 15 28 103 52 183 49 195 77 17 39 -56 -11 -123 -28
-149 -36 -26 -9 -56 -14 -65 -11 -19 4 126 79 202 104 36 12 30 12 -67 7 -112
-7 -130 0 -86 30 12 9 31 16 41 16 10 0 28 7 40 14 12 8 79 25 149 36 70 12
153 30 185 40 62 20 113 25 113 12z m-2231 -56 c30 -27 41 -56 29 -78 -7 -14
-5 -18 11 -18 11 0 21 6 24 13 2 6 12 -3 21 -21 18 -35 18 -93 1 -99 -6 -2
-38 21 -72 51 -34 30 -68 56 -75 58 -10 4 -10 8 1 22 13 15 12 21 -3 47 -14
23 -15 33 -6 44 14 16 36 10 69 -19z m-197 -113 c10 -9 18 -29 18 -44 0 -27 0
-27 -30 -13 -30 15 -35 28 -24 58 8 20 13 20 36 -1z m-2346 -39 c10 -38 -1
-161 -16 -179 -12 -14 -15 -14 -31 1 -25 22 -24 61 1 99 11 17 20 47 20 68 0
42 16 50 26 11z m3174 -25 c6 -10 7 -43 4 -74 -6 -52 -5 -55 15 -55 28 0 28
-29 0 -61 -17 -20 -20 -34 -17 -77 3 -30 12 -60 21 -69 14 -15 12 -20 -25 -69
-36 -45 -44 -51 -62 -42 -15 6 -30 5 -50 -6 -59 -30 -74 7 -26 64 33 37 36 51
19 78 -9 15 -4 37 26 113 21 52 44 103 51 114 16 22 19 58 5 53 -6 -1 -20 -18
-33 -37 -29 -43 -42 -45 -46 -5 -5 49 57 111 96 97 7 -3 17 -14 22 -24z m-650
-16 c17 -22 20 -36 15 -69 -4 -32 -1 -51 16 -84 29 -55 38 -140 16 -140 -26 0
-46 40 -72 145 -40 156 -29 217 25 148z m-3472 -15 c-2 -21 -8 -33 -18 -33
-19 0 -25 32 -10 50 20 24 31 17 28 -17z m2943 -15 c36 -95 43 -190 12 -151
-12 14 -53 142 -53 164 0 25 30 15 41 -13z m408 -106 c11 -60 29 -124 41 -144
11 -19 20 -41 20 -49 0 -24 -37 -16 -55 13 -20 30 -54 146 -62 208 -5 44 12
104 26 89 5 -5 18 -58 30 -117z m1731 103 c0 -5 -15 -10 -34 -10 -26 0 -40 -7
-59 -30 -14 -16 -27 -33 -29 -38 -1 -5 -18 -12 -35 -15 -31 -6 -33 -5 -33 22
0 33 13 46 66 65 45 17 124 21 124 6z m-5234 -91 c19 -11 34 -24 34 -28 0 -4
-14 -47 -31 -95 -25 -71 -32 -113 -38 -210 -4 -67 -11 -127 -15 -134 -12 -20
-42 12 -62 67 -22 59 -20 57 -45 35 l-22 -19 6 125 c10 235 69 323 173 259z
m2692 2 c8 -5 12 -21 10 -37 -3 -26 -7 -29 -45 -32 -35 -3 -43 -7 -43 -23 0
-41 19 -59 59 -59 25 0 47 -7 62 -21 l24 -21 -24 6 c-16 3 -31 -3 -48 -20 -31
-32 -28 -57 22 -148 28 -50 42 -66 59 -66 48 0 56 -32 29 -117 -18 -57 -28
-65 -38 -32 -4 11 -18 25 -32 32 -22 10 -25 16 -20 54 2 23 2 44 0 47 -3 2
-18 0 -34 -6 -19 -7 -29 -17 -30 -31 -1 -14 -5 -7 -11 16 -7 26 -18 41 -35 48
-35 13 -56 71 -56 152 1 71 -13 102 -42 91 -20 -8 -20 -80 0 -117 8 -15 17
-45 21 -65 4 -20 13 -49 20 -64 29 -56 4 -99 -36 -63 -26 23 -40 98 -40 211 0
101 12 146 49 178 21 19 21 19 21 -7 0 -37 28 -104 47 -111 14 -6 15 1 9 48
-3 30 -9 62 -12 71 -4 10 7 29 35 55 43 41 56 46 79 31z m280 -25 c6 -29 -7
-66 -23 -66 -11 0 -15 11 -15 38 0 21 3 42 7 46 11 10 28 1 31 -18z m272 -26
c0 -20 -5 -30 -15 -30 -15 0 -21 40 -8 53 14 15 23 6 23 -23z m1738 6 c5 -26
-13 -42 -31 -27 -11 9 -17 8 -27 -4 -14 -17 -30 -20 -30 -5 0 19 50 61 68 58
9 -2 18 -12 20 -22z m-1808 -60 c0 -12 5 -27 11 -33 5 -5 9 -30 7 -54 l-4 -44
-17 37 c-18 40 -24 133 -7 123 6 -3 10 -16 10 -29z m-886 -27 c48 -38 86 -139
52 -139 -7 0 -25 9 -39 20 -14 11 -27 20 -29 20 -2 0 1 -33 8 -72 7 -40 14
-93 15 -118 2 -62 12 -94 31 -98 12 -2 15 2 11 18 -8 31 27 23 44 -10 30 -60
9 -110 -46 -110 -12 0 -30 -9 -41 -20 -29 -29 -109 -28 -138 3 -12 12 -36 37
-54 56 l-33 34 -3 152 -4 152 55 57 c78 79 122 94 171 55z m-1973 -25 c20 -22
24 -36 24 -92 1 -37 6 -77 13 -89 8 -14 9 -24 2 -28 -5 -3 -10 -13 -10 -22 0
-8 -11 -28 -25 -45 -21 -25 -25 -40 -25 -96 0 -94 -20 -67 -27 37 l-6 81 -56
2 c-31 0 -63 1 -71 2 -19 1 -26 105 -11 157 30 100 137 152 192 93z m2665 -31
c11 -62 21 -73 63 -73 48 0 73 -26 75 -77 1 -34 -2 -38 -26 -41 -24 -3 -28 1
-33 31 -6 28 -11 34 -26 30 -10 -3 -26 0 -35 8 -22 18 -51 78 -59 122 -6 33
-5 37 13 37 16 0 23 -8 28 -37z m-2315 -15 c13 -25 7 -167 -10 -211 -6 -15
-22 -32 -36 -37 -26 -10 -37 -39 -39 -99 -1 -33 1 -36 37 -42 20 -3 40 -9 43
-12 12 -12 -5 -36 -36 -52 -43 -22 -77 -13 -151 42 l-62 45 6 77 c11 138 50
224 129 281 51 37 102 41 119 8z m1238 8 c18 -22 32 -233 22 -333 -10 -98 -27
-123 -85 -123 -42 0 -133 46 -153 76 -24 38 -13 138 26 218 17 36 31 71 31 78
0 28 93 97 131 98 9 0 22 -6 28 -14z m-798 -6 c26 -15 90 -117 96 -156 6 -38
-13 -253 -26 -286 l-9 -23 -5 25 c-3 14 -8 70 -10 125 -6 159 -35 178 -55 37
-11 -76 -29 -114 -61 -132 -24 -12 -51 10 -51 43 0 37 -17 5 -34 -63 -20 -75
-29 -89 -54 -74 -36 23 -47 65 -47 179 1 97 4 117 26 166 59 126 160 196 230
159z m-1074 -22 c-4 -13 -9 -42 -13 -65 -4 -27 -12 -43 -20 -43 -19 0 -18 51
0 95 17 39 42 49 33 13z m3266 -97 c-14 -24 -80 -53 -103 -46 -31 10 -24 32
20 60 23 14 46 38 51 53 l11 27 16 -39 c10 -27 12 -44 5 -55z m-1778 9 c9 -16
21 -30 27 -30 14 0 5 -293 -11 -333 -6 -15 -20 -31 -32 -36 -20 -7 -36 -4
-149 33 -41 14 -66 52 -57 88 4 13 20 42 37 63 16 21 35 56 42 79 6 23 15 45
20 51 4 5 8 25 8 44 0 45 24 71 66 71 27 0 36 -6 49 -30z m2281 -16 c17 -40
12 -78 -13 -106 -22 -24 -33 -14 -26 26 4 26 0 38 -18 54 -22 21 -22 22 -4 42
27 29 44 25 61 -16z m487 -16 c14 -40 -54 -83 -119 -75 -30 3 -47 0 -58 -11
-23 -23 -42 -2 -27 27 12 22 45 28 56 10 5 -7 15 -5 31 5 13 9 30 16 38 16 7
0 24 9 37 20 28 23 36 24 42 8z m-640 -62 c7 -51 35 -126 47 -126 5 0 10 11
12 25 7 60 41 15 61 -81 11 -51 10 -57 -8 -70 -24 -18 -37 -14 -52 16 -20 41
-101 68 -118 40 -12 -19 -24 -9 -45 36 -15 35 -17 50 -9 60 12 14 33 9 24 -6
-8 -12 23 -33 40 -26 8 3 15 15 15 26 0 26 -35 96 -52 103 -19 8 29 47 57 47
19 0 23 -7 28 -44z m817 23 c0 -20 -31 -77 -45 -83 -21 -8 -28 10 -14 36 24
46 59 74 59 47z m-272 -111 c-3 -7 -17 -13 -33 -13 -16 0 -30 6 -32 13 -3 8 7
12 32 12 25 0 35 -4 33 -12z m-863 -28 c0 -18 -33 -26 -47 -12 -6 6 -7 15 -3
22 10 16 50 8 50 -10z m1065 -16 c0 -8 -16 -49 -35 -91 -19 -42 -40 -93 -45
-115 -13 -45 -65 -85 -126 -95 -34 -6 -37 -4 -27 9 7 8 33 25 59 38 39 21 50
33 75 89 16 35 36 86 44 113 8 26 17 53 20 58 10 16 35 12 35 -6z m-1210 -12
c0 -5 -27 -21 -60 -37 -72 -35 -90 -52 -65 -62 16 -6 30 -2 88 22 23 10 22 -9
-4 -44 -23 -32 -20 -79 7 -102 12 -10 21 -49 11 -49 -2 0 -22 9 -45 20 -27 13
-42 27 -42 39 0 10 -7 24 -15 31 -12 10 -20 9 -41 -4 -35 -24 -54 -6 -54 49 0
65 49 117 125 136 42 10 95 11 95 1z m160 -49 c26 -34 23 -67 -8 -71 -32 -5
-52 15 -52 53 0 53 26 61 60 18z m810 13 c-14 -18 -98 -51 -107 -43 -17 18 48
54 101 56 15 1 16 -2 6 -13z m-4172 -52 c72 -50 68 -172 -9 -279 -54 -75 -80
-69 -97 23 -28 150 -23 239 16 261 25 15 65 13 90 -5z m2664 11 c3 -3 1 -31
-4 -63 -6 -37 -5 -65 2 -80 11 -25 30 -21 30 6 0 36 22 92 35 92 16 0 20 -11
34 -94 15 -82 14 -99 -4 -92 -8 3 -21 9 -29 12 -22 9 -38 -29 -26 -61 8 -21
15 -26 30 -21 11 3 29 9 40 12 14 4 20 2 20 -8 0 -9 10 -28 21 -43 26 -32 22
-37 -61 -61 -88 -26 -209 -16 -239 20 -6 7 -15 78 -21 157 -10 160 -7 173 53
209 29 18 106 28 119 15z m1358 -11 c0 -3 -8 -18 -19 -32 -10 -15 -22 -37 -25
-49 -4 -13 -12 -23 -17 -23 -19 0 -8 49 17 79 24 28 44 40 44 25z m145 -34
c17 -28 -56 -58 -109 -44 -36 9 -35 41 2 47 55 8 101 7 107 -3z m-3811 -16
c14 -36 6 -135 -14 -174 -11 -22 -20 -52 -20 -67 0 -37 -19 -103 -29 -103 -17
0 -22 35 -16 100 l6 65 -20 -23 c-11 -12 -25 -47 -32 -76 -11 -49 -10 -58 10
-98 23 -49 28 -103 9 -110 -7 -3 -28 -1 -46 4 -45 12 -55 42 -56 173 -1 215
46 314 102 215 9 -16 20 -30 24 -30 4 0 10 21 13 48 11 75 52 120 69 76z
m2904 -21 c-2 -13 -14 -19 -38 -21 l-35 -2 24 20 c29 25 54 26 49 3z m-2701
-34 c27 -12 55 -25 63 -29 29 -14 41 -89 37 -220 -5 -151 -22 -205 -73 -226
-49 -21 -72 -17 -105 15 -24 25 -29 37 -28 78 1 89 38 153 58 101 9 -21 10
-19 10 14 1 27 -7 46 -28 70 -57 67 -75 132 -50 181 23 44 47 47 116 16z
m1757 -31 c19 -27 20 -61 4 -87 -9 -16 -6 -30 17 -83 20 -45 29 -80 29 -123 1
-59 1 -60 -35 -78 -48 -23 -163 -34 -183 -17 -13 10 -20 8 -42 -9 -29 -23 -54
-26 -82 -12 -9 5 -24 12 -34 15 -42 13 -52 279 -12 333 39 52 116 49 169 -7
16 -16 32 -30 37 -30 4 0 17 18 28 40 40 78 76 98 104 58z m565 -120 c1 -21
-3 -38 -8 -38 -12 0 -19 32 -25 115 l-6 70 20 -55 c10 -30 19 -72 19 -92z
m423 89 c21 -29 21 -30 3 -43 -10 -8 -32 -14 -48 -14 -26 0 -28 3 -22 23 4 12
9 37 12 55 6 37 17 33 55 -21z m118 42 c0 -20 -21 -49 -35 -49 -18 0 -18 2 -3
35 11 25 38 35 38 14z m-2463 -40 c63 -31 72 -58 72 -224 1 -150 -4 -164 -47
-146 -17 7 -40 10 -51 6 -11 -3 -33 1 -50 9 -40 21 -41 21 -41 -18 0 -19 -3
-41 -6 -50 -8 -21 -48 -20 -70 1 -15 15 -16 31 -9 138 4 66 9 163 11 215 2 52
3 97 4 99 1 14 145 -10 187 -30z m322 0 c28 -17 39 -19 58 -10 32 15 43 14 43
-3 0 -8 14 -25 31 -37 17 -12 38 -37 45 -55 18 -43 17 -122 -1 -154 -18 -32
-18 -40 0 -40 18 0 19 -20 3 -43 -16 -20 -70 -59 -121 -87 l-38 -21 -31 26
c-17 14 -44 29 -59 32 -16 3 -31 14 -35 25 -8 25 2 34 19 20 8 -7 17 -9 20 -5
10 9 8 111 -2 157 -13 52 -26 65 -48 43 -21 -21 -24 -117 -4 -141 11 -13 11
-16 -2 -16 -20 0 -24 14 -32 96 -9 93 8 194 36 217 28 23 76 22 118 -4z m475
-12 c17 -13 44 -27 59 -31 20 -5 33 -17 44 -44 22 -52 22 -150 1 -182 -9 -14
-20 -45 -24 -70 -8 -59 -28 -88 -69 -106 -46 -19 -145 -18 -195 2 -50 20 -55
41 -55 220 1 152 7 169 83 208 61 32 116 33 156 3z m2156 -57 c0 -6 15 -19 33
-30 26 -16 28 -20 11 -20 -11 0 -29 -7 -40 -15 -26 -20 -34 -19 -34 5 0 16 -7
20 -35 20 -44 0 -75 -29 -75 -70 0 -27 -3 -30 -34 -30 -45 0 -63 -22 -47 -58
11 -24 14 -25 22 -9 12 21 39 22 39 2 0 -9 -16 -25 -35 -36 -19 -12 -35 -24
-35 -28 0 -12 -74 -50 -127 -66 -55 -17 -113 -20 -113 -5 0 12 33 30 55 30 15
0 83 27 134 53 28 14 48 43 38 53 -4 4 -21 -3 -38 -15 -20 -15 -34 -20 -40
-14 -15 15 9 59 39 73 44 20 97 67 117 104 12 22 33 41 55 50 40 17 110 21
110 6z m1967 -28 c-8 -9 -20 -29 -26 -45 -12 -31 -31 -36 -31 -8 0 24 37 71
57 71 15 0 15 -2 0 -18z m-57 -147 c0 -18 -46 -42 -58 -31 -7 8 33 46 49 46 5
0 9 -7 9 -15z m-4525 -426 c4 -6 -3 -21 -16 -35 -21 -22 -23 -35 -27 -164 -7
-215 -25 -174 -39 88 l-6 122 41 0 c22 0 44 -5 47 -11z"/>
<path d="M5030 12509 c-41 -10 -127 -23 -190 -27 l-114 -9 -43 -47 c-50 -56
-67 -101 -48 -131 17 -26 66 -25 170 3 113 32 322 59 343 46 25 -16 26 -84 3
-239 -29 -195 -18 -212 95 -155 75 37 172 115 203 163 26 40 45 45 78 22 36
-25 38 -73 8 -174 -43 -149 -21 -188 66 -115 94 79 285 150 346 128 24 -8 28
-15 27 -49 0 -22 -4 -57 -8 -78 -8 -35 -7 -39 10 -35 28 5 64 66 64 107 0 44
-35 105 -76 131 -44 30 -103 26 -147 -9 -34 -26 -171 -70 -184 -58 -2 3 -12
36 -20 74 -20 90 -52 151 -103 197 -34 31 -48 37 -77 34 -52 -4 -76 -41 -81
-124 l-4 -66 -49 -30 c-27 -16 -54 -38 -60 -49 -5 -10 -16 -19 -24 -19 -21 0
-19 72 5 205 25 136 25 198 0 253 -14 31 -29 47 -54 57 -42 18 -41 18 -136 -6z"/>
<path d="M5856 11678 c-22 -32 -21 -124 3 -168 31 -59 111 -91 111 -45 0 9
-16 25 -35 36 -44 26 -63 81 -46 130 22 65 1 96 -33 47z"/>
<path d="M6084 11614 c-23 -54 -16 -70 28 -66 29 3 43 -3 72 -28 29 -26 36
-39 36 -70 0 -32 -5 -41 -38 -63 -74 -49 -90 -135 -30 -165 22 -10 36 -9 94 9
49 15 86 20 131 17 55 -3 68 -8 96 -36 47 -47 43 -89 -18 -186 -104 -168 -91
-254 28 -175 90 59 155 46 141 -29 l-7 -37 33 30 c56 52 61 92 14 114 -34 15
-81 14 -140 -4 -83 -25 -85 10 -5 118 62 85 68 107 41 163 -24 49 -63 77 -131
94 -39 10 -56 9 -105 -5 -87 -25 -144 -30 -144 -13 0 7 24 41 54 75 30 35 57
72 61 83 10 31 -21 83 -90 149 -75 72 -99 77 -121 25z"/>
<path d="M8891 11124 c-47 -20 -35 -40 22 -37 45 3 46 2 49 -29 4 -41 28 -50
28 -11 0 61 -48 98 -99 77z"/>
<path d="M6587 10743 c-3 -16 -23 -50 -44 -77 -32 -41 -38 -57 -38 -96 0 -63
24 -90 77 -90 31 0 46 7 70 30 17 17 28 33 26 36 -3 2 -25 -1 -50 -7 -24 -7
-56 -9 -71 -5 -42 10 -35 44 23 110 28 31 50 66 50 76 0 51 -34 69 -43 23z"/>
<path d="M6763 10667 c-58 -62 -83 -112 -41 -83 31 22 71 20 93 -4 18 -20 18
-22 -1 -142 -4 -26 -2 -38 5 -38 18 0 41 65 48 134 6 68 -6 103 -49 143 l-24
23 -31 -33z"/>
<path d="M7314 9990 c-32 -13 -39 -30 -12 -30 38 0 99 20 93 31 -7 11 -52 11
-81 -1z"/>
<path d="M7758 9923 c12 -2 32 -2 45 0 12 2 2 4 -23 4 -25 0 -35 -2 -22 -4z"/>
<path d="M7652 9833 c4 -20 36 -28 57 -14 21 13 4 31 -30 31 -24 0 -30 -4 -27
-17z"/>
<path d="M6729 9615 c-19 -14 -55 -39 -81 -56 -47 -32 -60 -49 -35 -49 23 0
172 96 175 113 5 24 -20 21 -59 -8z"/>
<path d="M9058 9472 c-26 -5 -22 -19 6 -26 26 -6 56 1 56 14 0 9 -39 17 -62
12z"/>
<path d="M9290 9291 c0 -16 61 -81 76 -81 18 0 18 10 -2 38 -17 25 -74 58 -74
43z"/>
<path d="M6070 9223 c0 -22 5 -33 14 -33 16 0 76 47 76 60 0 4 -20 7 -45 6
-44 -1 -45 -2 -45 -33z"/>
<path d="M5954 9154 c-19 -19 -34 -45 -34 -57 0 -19 7 -15 45 25 25 26 45 52
45 57 0 21 -23 11 -56 -25z"/>
<path d="M836 8919 c-20 -30 -21 -65 0 -73 24 -9 34 2 34 37 0 49 -14 64 -34
36z"/>
<path d="M957 8914 c-9 -9 -7 -102 3 -134 l7 -25 13 30 c19 45 19 129 0 133
-9 1 -19 0 -23 -4z"/>
<path d="M1066 8884 c-10 -26 -7 -104 4 -104 6 0 18 16 27 35 13 28 14 39 5
60 -13 29 -27 32 -36 9z"/>
<path d="M1160 8874 c-14 -35 -12 -57 3 -79 18 -24 33 -13 41 30 13 67 -23
106 -44 49z"/>
<path d="M1267 8884 c-11 -11 -8 -114 3 -114 16 0 41 59 38 88 -3 26 -26 40
-41 26z"/>
<path d="M1568 8767 c-6 -31 9 -70 24 -65 20 7 17 82 -3 86 -11 2 -18 -6 -21
-21z"/>
<path d="M1770 8770 c-14 -26 -9 -122 6 -127 14 -5 34 49 34 92 0 43 -24 65
-40 35z"/>
<path d="M701 8766 c-7 -9 -15 -35 -18 -58 -4 -40 -3 -42 11 -24 16 20 32 83
24 92 -3 2 -11 -2 -17 -10z"/>
<path d="M3884 8695 c-8 -30 -1 -40 21 -31 10 3 15 15 13 28 -4 31 -26 34 -34
3z"/>
<path d="M3296 8662 c-12 -19 -18 -110 -8 -116 16 -10 32 27 32 73 0 38 -13
61 -24 43z"/>
<path d="M3417 8623 c-8 -21 -13 -40 -10 -43 8 -8 43 41 43 61 0 31 -17 22
-33 -18z"/>
<path d="M4280 8621 c-13 -25 -13 -61 0 -61 13 0 30 34 30 59 0 26 -16 27 -30
2z"/>
<path d="M4514 8612 c-28 -18 -46 -93 -25 -106 12 -8 36 23 49 63 15 44 5 62
-24 43z"/>
<path d="M4400 8579 c-9 -21 -10 -33 -2 -41 7 -7 12 -4 15 8 3 11 8 29 12 42
10 33 -11 27 -25 -9z"/>
<path d="M2133 8584 c-3 -9 -6 -41 -7 -72 -1 -45 2 -57 16 -60 21 -4 32 44 23
104 -6 45 -21 57 -32 28z"/>
<path d="M2206 8567 c-3 -12 -6 -75 -6 -139 0 -121 8 -145 38 -114 20 20 21
137 2 216 -14 57 -25 70 -34 37z"/>
<path d="M2589 8563 c-16 -40 -25 -291 -10 -278 17 17 50 161 53 233 3 56 0
67 -14 70 -12 2 -22 -6 -29 -25z"/>
<path d="M4622 8578 c-18 -23 -42 -85 -42 -110 1 -22 1 -22 15 -4 8 11 15 31
15 45 0 13 7 32 16 42 9 10 14 23 12 30 -3 8 -7 7 -16 -3z"/>
<path d="M3046 8563 c-3 -3 -6 -29 -6 -57 1 -56 13 -48 25 15 6 34 -4 57 -19
42z"/>
<path d="M2826 8534 c-3 -9 -6 -37 -6 -62 l1 -47 13 31 c24 55 29 94 13 94 -8
0 -18 -7 -21 -16z"/>
<path d="M4672 8513 c-33 -89 -41 -143 -21 -143 15 0 39 64 46 121 6 54 -8 67
-25 22z"/>
<path d="M7945 8215 c-41 -23 -65 -45 -65 -63 0 -12 12 -13 68 -7 225 24 278
23 310 -9 9 -8 17 -43 21 -85 4 -38 9 -73 13 -76 10 -11 38 75 38 119 0 58
-34 100 -92 114 -24 6 -92 14 -153 17 -91 5 -115 3 -140 -10z"/>
<path d="M6996 8184 c-16 -41 -7 -65 32 -80 90 -36 114 -49 124 -68 6 -11 13
-74 17 -140 l6 -121 40 -9 c67 -14 84 -24 102 -61 9 -19 20 -35 24 -35 17 0
127 135 169 207 41 70 52 81 103 105 94 46 170 139 139 170 -7 7 -26 -4 -64
-39 -29 -28 -73 -63 -98 -78 -55 -33 -71 -52 -116 -137 -20 -36 -44 -74 -55
-84 -18 -16 -22 -16 -82 0 -91 26 -91 25 -106 107 -29 164 -49 197 -132 224
-27 9 -55 26 -62 36 -14 23 -33 25 -41 3z"/>
<path d="M2630 7727 c0 -16 48 -85 73 -106 22 -18 22 -1 1 42 -29 58 -74 96
-74 64z"/>
<path d="M2530 7723 c0 -9 16 -33 78 -121 23 -34 42 -66 42 -71 0 -6 5 -11 10
-11 16 0 11 38 -11 81 -32 64 -119 152 -119 122z"/>
<path d="M2740 7716 c0 -7 25 -47 55 -89 53 -72 105 -168 105 -194 0 -7 7 -13
15 -13 18 0 19 9 4 47 -13 36 -118 222 -137 246 -18 20 -42 23 -42 3z"/>
<path d="M2740 7585 c0 -9 8 -30 17 -48 13 -24 18 -28 21 -15 3 16 -23 78 -33
78 -3 0 -5 -7 -5 -15z"/>
<path d="M8980 7538 c0 -50 13 -80 24 -53 13 35 4 95 -15 95 -5 0 -9 -19 -9
-42z"/>
<path d="M6375 7549 c-4 -6 -9 -38 -12 -72 -3 -49 -2 -58 7 -44 6 10 14 43 17
72 6 53 2 67 -12 44z"/>
<path d="M6455 7513 c-27 -72 -44 -233 -25 -233 18 0 31 52 37 152 6 95 3 117
-12 81z"/>
<path d="M8530 7449 c-28 -102 -60 -256 -60 -287 0 -56 17 -26 39 66 36 155
53 342 21 221z"/>
<path d="M8291 7165 c-7 -16 -29 -77 -48 -135 -68 -201 -112 -297 -264 -577
-38 -69 -32 -95 11 -45 91 108 329 678 318 760 l-4 27 -13 -30z"/>
<path d="M8357 7039 c-23 -52 -31 -89 -19 -89 13 0 45 95 39 113 -3 6 -12 -4
-20 -24z"/>
<path d="M6588 6895 c-4 -22 -8 -51 -8 -65 1 -22 2 -23 11 -7 5 9 9 39 7 65
l-3 47 -7 -40z"/>
<path d="M8306 6878 c-17 -29 -29 -78 -18 -78 4 0 15 23 24 50 18 55 16 62 -6
28z"/>
<path d="M8049 6789 c-59 -119 -155 -292 -200 -362 -39 -60 -46 -77 -31 -77
32 0 299 496 278 517 -2 3 -24 -33 -47 -78z"/>
<path d="M7503 6785 c-18 -33 -83 -198 -83 -212 0 -26 17 -12 42 35 34 62 60
146 56 174 -3 22 -4 23 -15 3z"/>
<path d="M7869 6773 c-41 -44 -65 -84 -82 -133 -8 -25 -19 -54 -23 -65 -7 -18
-6 -18 9 -6 9 7 17 18 17 23 0 6 14 26 31 46 34 39 83 135 77 153 -2 5 -15 -3
-29 -18z"/>
<path d="M8236 6720 c-32 -68 -34 -91 -6 -65 21 19 44 88 37 108 -3 7 -16 -13
-31 -43z"/>
<path d="M7737 6684 c-37 -75 -41 -98 -13 -75 23 20 75 151 59 151 -5 0 -26
-34 -46 -76z"/>
<path d="M9022 6536 c-12 -16 -22 -35 -22 -44 0 -8 -19 -57 -41 -109 -23 -51
-39 -96 -36 -99 7 -7 91 142 112 197 9 26 15 55 13 65 -3 16 -6 14 -26 -10z"/>
<path d="M7193 6448 c-17 -29 -58 -99 -92 -155 -34 -56 -61 -108 -61 -115 2
-35 122 147 170 255 30 68 20 77 -17 15z"/>
<path d="M7705 6468 c-51 -64 -106 -158 -92 -158 16 0 87 72 87 88 0 7 9 31
21 53 26 52 19 60 -16 17z"/>
<path d="M7514 6434 c-52 -86 -70 -140 -37 -113 19 16 75 137 70 152 -2 6 -17
-12 -33 -39z"/>
<path d="M8768 6438 c-17 -26 -42 -107 -35 -114 6 -7 59 115 55 128 -2 6 -11
0 -20 -14z"/>
<path d="M8523 6393 c-37 -53 -164 -303 -154 -303 21 0 121 167 161 271 24 59
21 73 -7 32z"/>
<path d="M7308 6385 c-9 -19 -9 -28 0 -37 15 -15 20 -9 28 30 8 39 -11 44 -28
7z"/>
<path d="M8576 6278 c-37 -62 -100 -160 -141 -217 -41 -58 -75 -109 -75 -115
0 -16 58 44 110 114 85 114 192 312 177 327 -2 2 -34 -47 -71 -109z"/>
<path d="M8139 6236 c-22 -48 -39 -90 -36 -92 6 -7 46 62 68 120 33 83 11 64
-32 -28z"/>
<path d="M9016 6295 c-25 -38 -37 -75 -25 -75 11 0 54 89 46 96 -2 3 -12 -7
-21 -21z"/>
<path d="M8667 6240 c-20 -36 -39 -74 -42 -85 -10 -32 42 33 66 82 34 71 15
72 -24 3z"/>
<path d="M8263 6279 c-6 -8 -28 -50 -49 -93 -20 -43 -45 -87 -55 -97 -22 -22
-52 -90 -43 -98 3 -3 17 8 30 24 34 42 138 249 132 265 -3 9 -6 9 -15 -1z"/>
<path d="M8837 6168 c-70 -107 -80 -134 -33 -89 37 36 114 171 97 171 -5 0
-34 -37 -64 -82z"/>
<path d="M8937 6180 c-9 -13 -17 -30 -17 -37 0 -8 -26 -42 -59 -77 -69 -74
-89 -106 -67 -106 33 0 171 191 164 228 -3 14 -6 13 -21 -8z"/>
<path d="M8624 5919 c-38 -33 -79 -68 -91 -79 -27 -21 -29 -38 -9 -66 14 -18
15 -18 38 11 12 16 42 51 65 77 42 47 78 106 71 114 -3 2 -35 -24 -74 -57z"/>
<path d="M5811 6315 c-17 -40 -41 -144 -41 -175 1 -24 1 -24 15 -6 18 24 48
156 43 188 -4 22 -5 22 -17 -7z"/>
<path d="M3990 5651 c-19 -13 20 -28 92 -36 l53 -6 -35 19 c-45 25 -91 34
-110 23z"/>
<path d="M6034 5248 c-5 -7 -12 -58 -16 -113 -4 -55 -10 -136 -14 -180 -4 -57
-3 -77 4 -70 30 28 69 354 44 369 -6 3 -14 1 -18 -6z"/>
<path d="M5457 4902 c-32 -49 -46 -102 -28 -102 16 0 64 105 59 128 -3 12 -11
6 -31 -26z"/>
<path d="M5371 4895 c-1 -11 -8 -33 -16 -49 -17 -32 -20 -76 -6 -76 12 0 35
100 28 125 -5 20 -5 19 -6 0z"/>
<path d="M1014 6625 c-9 -22 23 -88 37 -79 8 4 8 9 0 17 -6 6 -11 23 -11 38 0
32 -17 48 -26 24z"/>
<path d="M6473 5571 c-3 -12 -11 -21 -19 -21 -31 0 -37 -40 -28 -185 12 -198
9 -330 -9 -405 -8 -36 -14 -66 -12 -68 13 -14 38 65 55 177 11 73 30 172 41
219 20 86 20 101 3 240 -7 56 -22 77 -31 43z"/>
<path d="M6718 5499 c-18 -10 -25 -49 -10 -49 10 0 52 43 52 53 0 10 -22 8
-42 -4z"/>
<path d="M6341 5201 c-8 -14 -7 -22 5 -32 13 -11 15 -25 9 -73 -6 -53 -5 -58
9 -47 12 10 16 31 16 76 0 90 -16 120 -39 76z"/>
<path d="M8060 5191 c0 -5 16 -52 35 -106 20 -54 39 -120 44 -149 l9 -51 1 45
c0 25 -6 73 -14 105 -23 88 -75 196 -75 156z"/>
<path d="M7686 3905 c-11 -22 -22 -64 -24 -92 -4 -44 -2 -53 11 -53 22 0 39
66 35 133 l-3 52 -19 -40z"/>
<path d="M6115 3623 c-11 -3 -24 -9 -30 -13 -5 -4 -27 -10 -48 -14 -21 -4 -35
-11 -32 -16 7 -11 60 -2 98 17 15 8 43 12 62 11 19 -2 35 2 37 7 3 11 -55 16
-87 8z"/>
<path d="M6273 3461 c-34 -10 -68 -23 -76 -29 -8 -7 -38 -15 -68 -19 -39 -6
-55 -13 -57 -26 -5 -24 15 -22 154 13 111 28 152 49 138 71 -7 12 -18 11 -91
-10z"/>
<path d="M5897 3464 c-4 -4 -7 -19 -7 -33 0 -15 -7 -37 -16 -49 -15 -21 -14
-22 15 -22 33 0 81 19 81 31 0 5 -10 8 -22 6 -19 -2 -24 4 -26 28 -4 33 -14
49 -25 39z"/>
<path d="M7010 3275 c-14 -7 -38 -19 -55 -26 -22 -9 -25 -13 -13 -16 18 -4 92
30 103 47 8 13 -4 11 -35 -5z"/>
<path d="M6866 3144 c-54 -19 -149 -44 -210 -55 -61 -12 -126 -25 -144 -31
-42 -12 -121 -13 -134 0 -15 15 63 41 175 57 139 21 157 25 157 37 0 14 -115
5 -192 -16 -32 -8 -122 -27 -200 -41 -78 -14 -146 -29 -151 -32 -14 -8 14 -23
48 -24 25 -1 22 -3 -14 -10 -24 -5 -46 -11 -49 -14 -25 -24 122 -26 223 -3
124 29 235 33 235 8 0 -10 -50 -26 -108 -34 -53 -8 -112 -31 -112 -45 0 -5 21
-3 48 6 26 8 110 23 187 33 156 20 225 36 225 51 0 6 -28 9 -70 7 -38 -1 -72
1 -76 4 -12 12 6 26 43 33 80 15 243 79 243 96 0 14 -17 10 -124 -27z"/>
<path d="M7051 3054 c-46 -24 -108 -49 -137 -55 -54 -12 -73 -29 -33 -29 33 0
113 22 129 35 8 7 34 18 56 24 42 11 94 45 94 62 0 15 -22 8 -109 -37z"/>
<path d="M5950 2992 c-8 -3 -26 -13 -39 -23 l-24 -19 42 0 c29 0 44 5 48 16 7
19 -7 33 -27 26z"/>
<path d="M6760 2960 c-11 -7 -4 -10 27 -10 23 0 45 5 48 10 8 13 -55 13 -75 0z"/>
<path d="M6490 2920 c-19 -12 146 -12 175 0 13 6 -11 9 -70 9 -49 0 -97 -4
-105 -9z"/>
<path d="M6680 2873 c-14 -3 -29 -9 -35 -15 -11 -10 54 -1 90 13 18 7 17 8 -5
7 -14 0 -36 -3 -50 -5z"/>
<path d="M6421 2834 c-63 -8 -116 -16 -119 -19 -15 -15 219 10 248 26 19 11
17 11 -129 -7z"/>
<path d="M6650 2795 c-89 -15 -154 -33 -125 -34 46 -2 198 20 228 33 l32 14
-30 0 c-16 0 -64 -6 -105 -13z"/>
<path d="M6923 2781 c-82 -17 -102 -25 -90 -38 14 -13 207 31 207 47 0 13 -20
12 -117 -9z"/>
<path d="M7076 2771 c-43 -48 -123 -67 -721 -171 -220 -38 -424 -75 -453 -81
-53 -11 -63 -29 -15 -29 34 0 804 134 946 164 187 41 277 81 277 123 0 19 -14
16 -34 -6z"/>
<path d="M6671 2725 c-18 -8 -44 -15 -57 -15 -13 0 -24 -4 -24 -10 0 -5 12 -8
28 -5 105 16 160 28 173 36 24 15 -83 10 -120 -6z"/>
<path d="M7033 2679 c-17 -17 -121 -60 -183 -75 -289 -71 -456 -101 -690 -124
-114 -11 -383 -68 -440 -93 l-35 -15 35 -1 c38 0 107 12 330 58 80 16 210 37
290 46 152 16 334 52 460 90 41 12 102 30 135 39 71 21 148 63 140 77 -8 12
-29 11 -42 -2z"/>
<path d="M6886 2244 c-9 -8 -16 -24 -16 -33 0 -24 -22 -41 -57 -45 -17 -2 -29
-10 -31 -21 -3 -14 1 -16 30 -10 62 14 78 24 78 48 0 13 7 32 15 43 26 34 11
49 -19 18z"/>
<path d="M6755 2210 c-16 -4 -73 -25 -125 -47 -52 -22 -128 -48 -169 -57 -77
-19 -147 -45 -121 -46 33 0 289 68 311 84 13 9 32 16 42 16 25 0 117 33 117
41 0 12 -24 16 -55 9z"/>
<path d="M6260 2166 c-72 -20 -79 -26 -21 -20 55 5 129 34 86 33 -11 -1 -40
-6 -65 -13z"/>
<path d="M5597 2144 c-44 -14 -77 -28 -74 -30 6 -6 119 14 153 26 25 10 33 30
12 30 -7 -1 -48 -12 -91 -26z"/>
<path d="M6690 2121 c-39 -12 -90 -41 -90 -50 0 -11 68 4 117 24 53 22 31 43
-27 26z"/>
<path d="M5940 2113 c-75 -11 -327 -67 -340 -75 -21 -13 57 -2 238 33 168 33
221 48 162 47 -19 0 -46 -2 -60 -5z"/>
<path d="M6140 2033 c-174 -20 -645 -101 -637 -110 8 -7 331 28 392 43 33 9
110 24 170 34 61 11 122 23 135 29 l25 10 -25 -1 c-14 -1 -41 -3 -60 -5z"/>
<path d="M5000 1984 c-83 -25 -139 -54 -75 -40 55 13 195 57 195 61 0 10 -37
3 -120 -21z"/>
<path d="M5375 1992 l-50 -16 40 -4 c41 -4 122 14 131 29 9 15 -68 9 -121 -9z"/>
<path d="M5063 1913 c-24 -8 -43 -18 -43 -22 0 -11 47 -3 85 14 17 7 37 15 45
18 8 3 2 5 -15 5 -16 0 -49 -6 -72 -15z"/>
<path d="M5175 1860 c-133 -34 -250 -77 -266 -96 -6 -8 -7 -14 -2 -14 12 0
253 69 383 109 l95 30 -50 0 c-27 0 -99 -13 -160 -29z"/>
<path d="M5477 1829 c-133 -21 -208 -39 -189 -46 27 -10 319 41 337 58 12 12
-7 11 -148 -12z"/>
<path d="M1860 1689 c0 -109 -3 -139 -15 -149 -8 -7 -15 -18 -15 -25 0 -7 7
-15 15 -19 20 -7 19 -31 -5 -94 -11 -29 -20 -61 -20 -72 0 -22 -18 -27 -25 -7
-2 6 -6 33 -10 60 -6 48 -21 61 -32 30 -4 -10 -20 -38 -36 -62 -34 -50 -46
-124 -46 -302 l-1 -107 45 -36 45 -37 0 -172 c0 -124 4 -183 15 -212 8 -22 14
-57 15 -77 0 -64 18 -42 23 30 3 37 11 101 17 142 6 41 14 94 16 118 5 42 14
54 62 90 14 10 27 35 33 62 17 73 49 376 56 520 5 118 4 137 -11 149 -14 12
-16 9 -16 -33 0 -33 -5 -48 -15 -53 -9 -3 -18 -3 -20 -1 -3 2 -17 85 -31 184
-14 98 -30 186 -35 194 -5 9 -9 -38 -9 -121z m-47 -585 c-4 -62 -23 -66 -23
-5 0 38 4 51 13 48 7 -2 11 -19 10 -43z"/>
<path d="M6435 1779 c-49 -12 -175 -69 -175 -80 0 -4 24 0 53 11 67 23 167 68
167 75 0 3 -1 5 -2 4 -2 -1 -21 -5 -43 -10z"/>
<path d="M5050 1720 l-55 -18 50 -1 c31 0 63 7 85 19 l35 19 -30 0 c-16 0 -55
-8 -85 -19z"/>
<path d="M6225 1611 c-34 -16 -36 -20 -16 -20 31 -1 101 20 101 31 0 14 -43 8
-85 -11z"/>
<path d="M6000 1533 c-8 -3 -33 -13 -55 -23 -22 -9 -93 -35 -159 -56 -65 -21
-126 -45 -135 -52 -14 -11 -13 -12 9 -7 69 16 420 131 420 138 0 8 -57 8 -80
0z"/>
<path d="M5630 1189 c-19 -11 -26 -18 -15 -15 11 3 37 8 58 12 20 3 40 10 43
15 10 17 -51 8 -86 -12z"/>
<path d="M5446 3211 c-20 -21 -21 -41 -3 -41 13 0 47 31 47 42 0 15 -30 15
-44 -1z"/>
</g>
</svg>
